<svg xmlns="http://www.w3.org/2000/svg">
    <symbol id="arrow" viewBox="0 0 9 4">
      <path d="M4.5 4L0 0h9z"/>
    </symbol>
    <symbol id="chevron_white" viewBox="0 0 11 19.2">
      <path d="M1.4 19.207l-1.4-1.4 8.2-8.2-8.2-8.2 1.4-1.4 9.6 9.6z"/>
    </symbol>
    <symbol id="facebook" viewBox="0 0 8.949 16.708">
      <path d="M8.363 9.4l.464-3.024h-2.9V4.412a1.513 1.513 0 011.7-1.634h1.319V.2A16.2 16.2 0 006.608 0c-2.39 0-3.952 1.448-3.952 4.07v2.3H0V9.4h2.656v7.31h3.269V9.4h2.438z"/>
    </symbol>
    <symbol id="instagram" viewBox="0 0 16.712 16.708">
      <path d="M8.358 4.07a4.284 4.284 0 104.284 4.284 4.277 4.277 0 00-4.27-4.284h-.014zm0 7.069a2.785 2.785 0 112.785-2.785 2.79 2.79 0 01-2.785 2.785zm5.458-7.244a1 1 0 11-2 0 1 1 0 012 0zm2.837 1.014a4.946 4.946 0 00-1.35-3.5A4.976 4.976 0 0011.805.062c-1.379-.078-5.514-.078-6.894 0a4.973 4.973 0 00-3.506 1.342 4.963 4.963 0 00-1.35 3.5c-.078 1.379-.078 5.514 0 6.894a4.946 4.946 0 001.35 3.5 4.982 4.982 0 003.5 1.35c1.379.078 5.514.078 6.894 0a4.946 4.946 0 003.5-1.35 4.977 4.977 0 001.35-3.5c.078-1.379.078-5.51 0-6.89l.004.001zm-1.782 8.37a2.824 2.824 0 01-1.588 1.588c-1.1.436-3.71.336-4.925.336s-3.829.1-4.925-.336a2.824 2.824 0 01-1.588-1.588c-.436-1.1-.336-3.71-.336-4.925s-.1-3.829.336-4.925a2.824 2.824 0 011.588-1.588c1.1-.436 3.71-.336 4.925-.336s3.829-.1 4.925.336a2.824 2.824 0 011.588 1.588c.436 1.1.336 3.71.336 4.925s.098 3.829-.336 4.925z"/>
    </symbol>
    <symbol id="link_external" viewBox="0 0 15 15">
      <path d="M0 0v15h15v-3.75h-1.875v1.875H1.875V1.875H3.75V0H0zm7.5 0l2.813 2.813L5.625 7.5 7.5 9.375l4.688-4.687L15 7.5V0H7.5z"/>
    </symbol>
    <symbol id="linkedin" viewBox="0 0 14.62 14.619">
      <path d="M3.272 14.619H.241V4.858h3.031v9.761zM1.755 3.527a1.764 1.764 0 111.756-1.772 1.77 1.77 0 01-1.756 1.772zm12.861 11.092h-3.024V9.867c0-1.132-.023-2.585-1.576-2.585-1.576 0-1.817 1.23-1.817 2.5v4.837H5.171V4.858h2.907V6.19h.042a3.184 3.184 0 012.868-1.576c3.067 0 3.631 2.02 3.631 4.644v5.361h-.003z"/>
    </symbol>
    <symbol id="nav_blob" viewBox="0 0 74 8">
      <path d="M37 0c13.933 0 18.127 8 37 8H0c19.7 0 23.067-8 37-8z" fill="#facd01"/>
    </symbol>
    <symbol id="seal_cropped" viewBox="0 0 340 335.794">
      <g opacity=".15"><path id="Path_502" d="M123.197 19.534l-.107.15a.353.353 0 00.107-.15" class="st1"/><path id="Path_506" d="M233.746 321.447C165.62 339.464 95.66 299.313 77.488 231.764S99.812 94.85 167.939 76.833c68.126-18.018 138.086 22.134 156.258 89.683 13.209 49.099-4.475 101.271-44.91 132.494a127.706 127.706 0 01-45.541 22.437M168.374 79.696c-66.11 17.669-105.258 85.129-87.438 150.678s85.858 104.364 151.968 86.695 105.258-85.129 87.438-150.678c-12.952-47.645-53.383-82.992-102.679-89.768a124.629 124.629 0 00-49.289 3.073" class="st1"/><path id="Path_507" d="M62.23 187.138c.071-1.189-.684-1.393-1.674-1.456-3.577-.243-7.159-.466-10.724-.839-1.338-.14-1.731.232-1.691 1.51a35.71 35.71 0 01-.204 3.742c-.282 3.865-.292 3.855 3.744 4.116 2.134.14 4.261.36 6.398.493 1.744.106 3.939.928 3.875-2.201-.011-.643.637-.607 1.115-.576a.852.852 0 01.911.917c-.232 3.168-.5 6.332-.766 9.499-.056.671-.328 1.083-1.121.874-.59-.155-1.225-.301-1.021-1.086.513-1.965-.789-2.017-2.141-2.113-8.226-.592-16.451-1.161-24.671-1.822-1.47-.119-2.531-.028-2.707 1.687-.061.602-.114 1.178-.997 1.004a1.178 1.178 0 01-1.15-1.366c.228-2.975.476-5.951.635-8.93.038-.742.201-1.109.977-.969.658.117 1.47.165 1.241 1.175-.429 1.903.818 2.05 2.188 2.148 2.9.212 5.807.39 8.696.712 1.338.148 1.818-.311 1.729-1.559a2.021 2.021 0 01-.004-.291c.157-2.3 1.212-5.13.238-6.759-1.09-1.815-4.304-.514-6.543-1.03a34.602 34.602 0 00-3.482-.219c-1.373-.168-2.326.126-2.467 1.679-.066.749-.241 1.203-1.221 1.068-1.013-.14-.992-.713-.935-1.429.215-2.776.378-5.557.675-8.325.06-.562-.282-1.739 1.103-1.494.765.134 1.289.404 1.114 1.322-.399 2.048 1.274 1.931 2.403 2.023 8.408.682 16.826 1.256 25.236 1.92 1.601.126 1.775-.92 1.862-1.992.076-.946.547-.928 1.306-.932 1.115-.014.959.557.893 1.297-.241 2.685-.352 5.382-.68 8.055-.077.626.764 1.965-.897 1.917-1.141-.032-1.556-.65-1.237-1.749" class="st1"/><path id="Path_508" d="M52.36 162.552c3.986 1.102 7.738 2.1 11.465 3.192 1.54.451 2.276.028 2.791-1.513 1.764-5.278.564-8.249-4.57-10.846-.694-.35-1.379-.735-2.084-1.055-.536-.234-1.185-.34-.869-1.157.292-.757.809-.564 1.42-.369 3.691 1.178 7.395 2.314 11.116 3.47-1.789 6.427-3.52 12.749-5.338 19.047-.217.749.054 2.196-1.53 1.891-1.625-.314-.833-1.445-.61-2.256.399-1.493-.554-1.86-1.648-2.164-8.062-2.227-16.129-4.428-24.181-6.691-1.695-.476-2.64-.03-2.92 1.712-.12.743-.375 1.26-1.339 1.014-1.121-.287-.954-.928-.721-1.75 1.633-5.75 3.268-11.5 4.822-17.272.359-1.331.929-1.687 2.272-1.322 2.722.739 5.487 1.321 8.223 1.999.561.144 1.615-.153 1.406.928-.217 1.119-1.137.742-1.898.595a13.155 13.155 0 00-4.053-.147c-3.815.533-6.576 3.882-6.344 7.694.104 1.107.993 1.257 1.818 1.489 2.809.788 5.607 1.619 8.438 2.325.761.189 1.778.929 2.388-.04a2.866 2.866 0 00-.04-3.05 7.152 7.152 0 00-3.694-2.692c-.553-.233-1.496-.188-1.057-1.27.308-.764.826-.576 1.419-.41 4.298 1.215 8.603 2.401 12.902 3.612.412.116 1.04.027.952.79-.105.862-.731.757-1.311.718s-1.152-.14-1.732-.182c-3.346-.239-4.225.331-5.489 3.701" class="st1"/><path id="Path_510" d="M333.894 294.697a16.64 16.64 0 00-3.906-5.629c-.434-.456-1.261-.842-.59-1.634.742-.873 1.239.109 1.653.424 1.47 1.107 2.839 2.346 4.25 3.53 4.482 3.76 4.476 3.754.925 8.229-3.069 3.865-6.113 7.75-9.193 11.606-.348.435-.519 1.355-1.5.665-.809-.566-1.034-1.096-.311-1.819 1.651-1.664.521-2.613-.84-3.654a2511.293 2511.293 0 01-19.089-14.8c-1.294-1.014-2.372-1.342-3.358.26-.494.802-1.011 1.088-1.831.384-.772-.672-.291-1.162.137-1.709 3.821-4.877 7.637-9.76 11.448-14.649.499-.643.903-.903 1.657-.355 2.593 1.884 5.218 3.732 7.824 5.589.474.339 1.004.695.457 1.376-.546.681-.979.164-1.474-.123a31.203 31.203 0 00-2.341-1.194c-4.819-2.229-7.878-1.123-10.294 3.615a1.545 1.545 0 00.459 2.241c2.677 2.082 5.328 4.201 8.067 6.192 1.185.864 2.529-.297 2.463-2.117a6.645 6.645 0 00-2.392-4.483c-.402-.397-1.027-.703-.446-1.363.566-.637.993-.148 1.456.215 3.453 2.668 6.929 5.308 10.37 7.99.393.306 1.195.6.748 1.308-.538.849-1.161.251-1.739-.083-1.588-.921-3.106-2.041-5.15-1.424a3.024 3.024 0 00-2.207 1.727c-.345 1.058.846 1.356 1.463 1.85 2.348 1.877 4.845 3.582 7.107 5.552 1.711 1.487 2.732 1.096 3.992-.538 1.588-2.058 2.99-4.072 2.191-7.173" class="st1"/><path id="Path_511" d="M281.678 86.83c3.012-.654 4.657-2.743 6.479-4.598.363-.37.543-1.168 1.309-.613.651.468.349.956-.011 1.465-1.99 2.869-3.987 5.721-5.929 8.619-.621.928-1.14.696-1.906.201a2088.95 2088.95 0 00-16.195-10.385c-.712-.451-1.254-.818-.621-1.785.566-.864 1.078-.605 1.658-.148 1.808 1.421 2.739.311 3.681-1.144a3535.639 3535.639 0 0112.831-19.711c.982-1.5 1.805-2.897-.605-3.874-.588-.24-.939-.668-.479-1.36.432-.651.858-.976 1.657-.465a3298.958 3298.958 0 0016.244 10.322c.563.355.796.685.382 1.352-1.682 2.713-3.306 5.462-4.982 8.18-.274.445-.513 1.177-1.298.759-.724-.386-.407-.962-.171-1.494.316-.708.665-1.401.95-2.122 1.93-4.887.39-8.294-4.466-10.192-1.255-.493-1.822.082-2.383.942-1.638 2.511-3.321 4.997-4.852 7.57-.358.599-1.553 1.225-.615 2.15a3.076 3.076 0 002.682.835 6.126 6.126 0 003.979-2.703c.412-.527.876-1.153 1.647-.523.682.561.06 1.021-.225 1.461-2.211 3.414-4.409 6.836-6.68 10.209-.413.613-.674 1.983-1.835 1.278-.932-.566.026-1.414.303-2.006.85-1.819 1.547-3.616.331-5.499-.905-1.398-1.882-1.901-3.01-.064a233.124 233.124 0 01-5.382 8.286c-.868 1.283-.85 2.196.541 3.095 2.214 1.422 4.282 3.205 6.956 1.953" class="st1"/><path id="Path_512" d="M155.047 63.212c-1.143-.573-1.413-1.88-2.054-2.839a4.827 4.827 0 00-2.574-2.24 3.112 3.112 0 00-2.812.309c-.94.747-.007 1.61.239 2.346.979 2.931 2.077 5.822 3.088 8.743.48 1.388 1.123 1.829 2.777 1.482 6.18-1.295 6.938-4.747 6.54-10.348a12.965 12.965 0 00-.489-1.969c-.118-.497-.108-.994.5-1.157a.865.865 0 011.108.653 930.48 930.48 0 013.215 10.546c.212.72-.349.97-.954 1.175a4905.384 4905.384 0 00-18.49 6.356c-.62.215-1.12.273-1.385-.482-.212-.607-.254-1.186.479-1.411 3.113-.958 1.953-2.824 1.207-4.812-2.628-7.064-5.204-14.152-7.643-21.282-.591-1.73-1.245-2.514-3.076-1.75-.697.291-1.291.25-1.64-.61-.45-1.122.514-1.069 1.047-1.263 5.67-2.054 11.351-4.074 17.028-6.103.989-.353 1.801-.516 2.295.811.946 2.527 2.11 4.98 3.03 7.517.235.648 1.208 1.682-.051 2.218-1.125.477-1.03-.829-1.435-1.373-.345-.46-.591-.99-.892-1.483-2.727-4.455-6.463-5.302-10.935-2.555-1.184.726-.865 1.617-.54 2.509 1.13 3.085 2.363 6.133 3.456 9.229.386 1.096.905 1.045 1.714.568 2.254-1.307 2.39-3.277 1.896-5.536-.157-.712-.912-1.862.511-2.114 1.113-.196.99 1.006 1.208 1.633 1.332 3.833 2.594 7.691 3.861 11.551.162.493.618 1.048-.242 1.658" class="st1"/><path id="Path_513" d="M303.743 92.989c-2.641.702-4.76 1.119-6.77 1.839-2.138.761-4.863 1.372-3.05 4.733.393.726-.246 1.049-.633 1.405-.466.428-.9.082-1.248-.253-1.89-1.807-3.775-3.622-5.651-5.442-.346-.336-.704-.754-.312-1.242.343-.427.658-.931 1.425-.671 5.684 1.929 10.589-1.473 15.877-2.277 1.124-.17 1.241-1.076 1.474-1.905 1.286-4.551 2.539-9.112 3.879-13.647a3.128 3.128 0 00-.121-2.773c-.429-.653-.593-1.158.083-1.742.752-.657 1.248-.154 1.737.315 2.231 2.146 4.449 4.308 6.668 6.466.496.482 1.01.955.284 1.655-.529.507-.959.855-1.672.133-1.577-1.599-2.304-.542-2.778 1.003-.838 2.733-1.663 5.472-2.626 8.647a46.778 46.778 0 006.517-1.808c1.698-.744 4.443-1.308 2.587-4.355-.289-.476.279-.862.568-1.227.568-.725 1.051-.157 1.417.189 1.757 1.664 3.44 3.403 5.214 5.05.527.49.675.862.241 1.438-.378.5-.731.847-1.42.391-2.168-1.445-4.341-.42-6.468.123-3.103.791-7.027.641-9.03 2.801-1.892 2.04-2.014 5.706-2.882 8.664a268.405 268.405 0 00-1.939 6.975c-.191.733-.523 1.678-.229 2.23.501.936 1.093 1.718-.085 2.413-1.128.665-1.479-.613-2.027-1.109-2.081-1.884-4.069-3.87-6.064-5.848-.34-.336-1.1-.609-.416-1.352.507-.554.94-.982 1.685-.387 2.053 1.648 2.645.216 3.134-1.462.828-2.838 1.665-5.671 2.634-8.962" class="st1"/><path id="Path_517" d="M220.657 47.703c2.161-.672 2.811-2.534 3.406-4.376.239-.753.58-1.339 1.36-1.107.781.232.286.956.224 1.472-.497 4.105-1.001 8.208-1.511 12.311-.077.617.15 1.537-.835 1.53-1.061-.01-.661-.879-.704-1.514a8.093 8.093 0 00-1.202-4.687 3.432 3.432 0 00-3.332-1.414c-1.144.201-.652 1.551-.778 2.4-.432 2.948-.711 5.92-1.197 8.858-.311 1.876.107 3.086 2.198 3.175 1.017.044 1.353.359 1.207 1.411-.167 1.184-.994.749-1.53.686-3.371-.39-6.731-.843-10.095-1.302-.6-.081-1.479.158-1.259-1.018.154-.825.625-1.267 1.4-1.09 2.479.568 2.741-1.055 2.956-2.797.972-7.827 1.879-15.663 2.987-23.464.268-1.888-.165-2.792-2.043-2.841-.986-.03-1.472-.278-1.289-1.34.209-1.215 1.144-.838 1.809-.759 6.167.733 12.323 1.533 18.49 2.261.96.113 1.335.294 1.181 1.398-.409 2.952-.624 5.93-.967 8.886-.073.626-.14 1.549-1.114 1.336-.66-.147-.49-.935-.519-1.492-.05-.958-.07-1.92-.152-2.876-.272-3.891-3.674-6.828-7.599-6.558-.429.03-.853.097-1.269.202-1.128.267-1.172 1.218-1.289 2.038-.407 2.855-.584 5.749-1.147 8.571-.533 2.667.892 2.439 2.607 2.095" class="st1"/><path id="Path_518" d="M87.049 120.918c1.358 4.278-1.04 8.838-5.355 10.184-.091.028-.184.055-.276.081-2.007.636-2.131 1.328-1.252 2.86.313.548.997 1.165.268 1.77s-1.251-.264-1.754-.571c-2.664-1.603-5.279-3.277-7.906-4.947-.456-.288-1.17-.451-.868-1.246.375-.99 1.076-.511 1.684-.319a15.418 15.418 0 008.273.942c2.692-.459 4.781-2.581 5.18-5.26a5.542 5.542 0 00-3.309-5.91c-2.64-1.469-4.848-.674-6.959 1.021-.98.785-1.899 1.65-2.909 2.394-6.274 4.62-14.051 2.592-17.357-4.503-1.651-3.785.105-8.181 3.923-9.818.293-.126.595-.233.903-.321 1.587-.489 2.594-.936 1.125-2.593-.427-.492-.605-1.076-.125-1.552.571-.569 1.081.113 1.49.356 2.593 1.534 5.146 3.136 7.697 4.739.446.28 1.115.477.647 1.298-.437.756-.987.408-1.503.253a14.592 14.592 0 00-7.733-.723c-2.026.49-3.919 1.274-4.5 3.6a5.15 5.15 0 002.181 5.591 4.85 4.85 0 005.969.431 50.954 50.954 0 004.627-3.47c4.792-3.86 11.834-3.136 15.727 1.616a11.06 11.06 0 012.114 4.093" class="st1"/><path id="Path_520" d="M132.228 58.442c.336.318.194.66-.305.999-.546.369-.825.093-1.181-.308-1.284-1.439-2.531-2.924-3.94-4.235a6.1 6.1 0 00-3.845-1.89c-2.164-.114-3.097.96-2.083 2.766 4.148 7.38 8.415 14.7 12.582 22.071.789 1.398 1.645 1.374 2.843.629.785-.49 1.63-.726 2.207.355.694 1.297-.684 1.175-1.161 1.469-2.798 1.722-5.657 3.349-8.516 4.971-.553.314-1.214.753-1.752-.109-.444-.71-.36-1.277.444-1.627 2.393-1.038 1.704-2.609.772-4.236l-11.677-20.271c-.5-.863-.799-2.24-2.228-1.792a2.991 2.991 0 00-1.973 2.654c-.372 2.585.605 4.934 1.235 7.352.198.73 1.232 1.735.028 2.226-1.064.429-1.332-.832-1.708-1.555-1.335-2.571-2.499-5.225-3.997-7.692-.776-1.284-.52-1.853.618-2.477a2484.994 2484.994 0 0015.749-8.697c.707-.395 1.365-.996 1.973-.048 1.973 3.076 3.886 6.191 5.928 9.447" class="st1"/><path id="Path_521" d="M70.938 97.278a17.093 17.093 0 003.731 6.102c.46.508 1.302 1.209.393 1.944-.815.655-1.16-.363-1.587-.749-2.352-2.154-4.654-4.373-7.01-6.526-.811-.742-1.188-1.189-.211-2.259 4.173-4.569 8.217-9.255 12.281-13.92.637-.729 1.08-.801 1.87-.143 2.681 2.23 5.435 4.373 8.164 6.544.376.302.839.564.52 1.154-.403.75-.959.46-1.46.147a32.675 32.675 0 00-5.15-2.712 9.342 9.342 0 00-3.705-.641 2.833 2.833 0 00-2.325 1.561c-.635 1.068.41 1.547 1.02 2.082a7399.471 7399.471 0 0018.578 16.268c1.303 1.143 2.486 1.466 3.577-.268.476-.756 1.057-.999 1.872-.284.969.857.164 1.336-.308 1.873-2.103 2.398-4.201 4.802-6.361 7.151-.491.534-.869 1.694-2.039.757-1.13-.904-.262-1.435.301-2.013 1.239-1.273.949-2.126-.397-3.271-5.973-5.078-11.805-10.317-17.752-15.429-.913-.781-1.782-2.485-3.376-1.35-1.405.999-1.081 2.547-.624 3.993" class="st1"/><path id="Path_522" d="M271.861 51.452a3.039 3.039 0 00-2.382-2.661c-1.685-.301-1.664 1.305-2.09 2.28-3.175 7.252-6.304 14.525-9.475 21.778-.678 1.551-.815 2.778 1.217 3.36.699.201 1.546.421 1.019 1.583-.479 1.061-1.078.754-1.839.429-3.036-1.299-6.096-2.541-9.127-3.85-.64-.275-1.641-.401-1.182-1.568.4-1.014 1.108-.966 1.868-.52 2.087 1.225 2.757-.247 3.395-1.733a8732.494 8732.494 0 009.341-21.838c.396-.931 1.248-1.962-.016-2.831a2.855 2.855 0 00-3.302 0 20.146 20.146 0 00-5.335 5.675c-.454.634-.585 1.975-1.792 1.267-1.051-.617.019-1.367.291-1.959 1.294-2.805 2.732-5.544 3.997-8.362.509-1.131 1.004-1.387 2.178-.872 5.515 2.415 11.05 4.783 16.609 7.099 1.029.431 1.654.73 1.104 2.047-1.305 3.115-2.469 6.286-3.677 9.44-.205.537-.298 1.223-1.117.928-.712-.25-.621-.859-.469-1.459a17.43 17.43 0 00.784-8.229" class="st1"/><path id="Path_523" d="M35.227 219.077c-1.036.275-1.915.403-1.875 1.435a3.078 3.078 0 001.483 2.687 18.893 18.893 0 007.817 2.017c.654.069 1.841-.462 1.895.718.064 1.329-1.228.985-1.979 1.037-3.185.22-6.394.309-9.586.52-.922.061-1.336.038-1.43-1.113-.493-6.044-1.041-12.087-1.742-18.111-.187-1.607.375-2.045 1.764-2.205 3.188-.369 6.369-.798 9.555-1.215.57-.073 1.238-.329 1.369.514.12.777-.568.898-1.125 1.04a20.664 20.664 0 00-5.724 2.126c-.588.326-1.155.691-1.697 1.092a3.158 3.158 0 00-1.333 3.307c.42 1.552 1.949 1.066 2.993.972 6.191-.562 12.362-1.239 18.541-1.873 1.158-.119 2.328-.165 3.477-.339 2.157-.332 5.027.116 4.259-3.64-.118-.579.321-.753.916-.771a.984.984 0 011.152.987c.352 3.545.66 7.094 1.02 10.637.08.84-.138 1.308-1.046 1.29a1.051 1.051 0 01-1.208-.86 1.033 1.033 0 01.014-.407c.244-2.588-1.262-2.411-3.168-2.209-7.723.822-15.461 1.499-23.192 2.229-.482.047-.962.109-1.155.13" class="st1"/><path id="Path_526" d="M100.988 291.169c-2.881 2.442-5.73 4.903-8.647 7.298-.493.404-1.074 1.435-1.898.52-.715-.794.322-1.188.678-1.617a19.37 19.37 0 004.123-6.605c1.289-4.278-1.332-7.445-5.648-6.269-8.244 2.295-15.222 7.759-19.384 15.179-2.234 3.74 1.066 7.896 5.607 7.54a13.348 13.348 0 006.059-1.937c.618-.384 1.349-.716 1.752.082.43.846-.533 1.062-1.029 1.376-.662.401-1.36.74-2.086 1.016-3.858 1.551-7.745 2.268-11.288-.655-3.668-3.03-3.693-6.962-2.369-11.087 2.521-7.872 13.009-15.369 21.169-15.382 4.829-.008 10.325 3.182 9.435 9.53.261 1.331 1.133.482 1.751.475.654-.007 1.52-.749 1.769.541" class="st1"/><path id="Path_527" d="M63.6 262.306c-2.254.657-4.621-.603-5.312-2.829-.66-2.226.621-4.562 2.865-5.223 2.21-.787 4.643.35 5.436 2.541.793 2.191-.353 4.603-2.563 5.39-.14.049-.282.092-.426.127" class="st1"/><path id="Path_529" d="M318.648 311.534c-2.276-4.66-5.902-5.88-12.834-4.151.177-.607.246-.876.333-1.138 1.45-4.379.282-7.627-3.675-10.208-3.184-2.079-6.046-1.737-9.486 1.295-3.126 2.754-6.171 5.599-9.208 8.444-.39.367-1.493.634-.751 1.516a1.289 1.289 0 002.192.085c.997-1.054 1.926-.911 2.94.196 5.613 6.141 11.274 12.235 16.934 18.335.98 1.055 1.464 2.144.088 3.18-.89.675-.738 1.292-.11 1.901.714.688 1.245.02 1.725-.419 3.362-3.064 6.818-6.04 10.03-9.248a7.954 7.954 0 001.819-9.793m-20.546-.861c-1.427-1.815-3.057-3.476-4.663-5.141-2.812-2.92-2.144-5.454 2.12-6.636 2.871-.256 4.554 1.969 6.207 4.088 2.398 3.075 2.098 5.146-.701 7.773-1.148 1.081-1.875 1.308-2.973-.088m13.121 12.788c-.932.261-1.439-.301-1.982-.88-2.442-2.606-4.911-5.187-7.325-7.818-.269-.292-.774-.544-.61-1.165.517-1.976 5.181-4.295 7.334-3.613a11.175 11.175 0 016.378 6.718c.589 2.309-1.569 6.134-3.795 6.758" class="st1"/><path id="Path_532" d="M200.855 34.363c-5.448-5.3-12.741-4.427-16.769 2.045-3.607 5.798-3.406 12.057-2.379 17.598a19.778 19.778 0 003.164 7.069c4.573 6.301 11.801 6.841 16.836 1.311 6.166-6.77 5.713-21.634-.855-28.022m-1.304 23.431a7.126 7.126 0 01-3.135 5.339c-2.796 1.691-6.225.092-7.68-3.482a21.446 21.446 0 01-.697-2.516c-.84-6.383-1.852-12.763-.043-19.163.788-2.784 2.321-4.802 5.426-4.725 2.977.076 4.418 2.304 5.156 4.791a45.79 45.79 0 01.973 19.756" class="st1"/><path id="Path_533" d="M104.715 298.365c-9.216.934-18.391 10.167-19.267 19.333-.406 4.246.662 7.904 4.392 10.303a11.497 11.497 0 0011.427.534 25.235 25.235 0 0011.801-10.77 15.738 15.738 0 002.108-12.171c-1.103-4.712-5.624-7.832-10.464-7.219m-1.437 22.113c-2.308 2.462-4.72 4.863-7.441 5.673-4.681 1.236-7.737-1.5-6.979-5.526a9.778 9.778 0 011.152-3.256 44.968 44.968 0 0113.848-14.969 5.485 5.485 0 016.753-.073c2.363 1.712 2.063 3.986 1.265 6.264-1.678 4.787-5.229 8.293-8.598 11.887" class="st1"/><path id="Path_537" d="M124.17 86.373c-.36-.374-.647-1.123-1.358-.544-1.452 1.177-2.503.153-3.603-.59-7.56-5.112-15.103-10.246-22.685-15.323-1.125-.756-2.351-2.559-3.707-1.411-1.389 1.178.103 2.828.641 4.148 3.167 7.769 6.497 15.472 9.589 23.269.691 1.744 1.94 3.726.155 5.699-.372.408.111.863.449 1.223.548.586 1.063.315 1.533-.054a223.358 223.358 0 005.413-4.365c.306-.257.926-.573.574-1.112a1.566 1.566 0 00-1.392-.908c-4.705.284-4.835.202-6.244-4.065-1.014-1.261-.209-2.138.954-3.127 5.294-4.538 5.265-4.562 10.397-.831 1.359.989 2.229 2.031.48 3.41-.675.534-.725.994-.205 1.682.49.648.872.554 1.419.113 2.477-2 4.976-3.965 7.456-5.969a.787.787 0 00.269-1.085.8.8 0 00-.135-.16m-22.192 2.196l-4.016-9.462a2.548 2.548 0 01-.479-2.222c3.567 1.737 6.506 4.422 10.093 6.513-1.365 2.247-3.824 3.103-5.598 5.171" class="st1"/><path id="Path_538" d="M233.185 257.758l-.689.123c-.808.557-2.386.749-1.111 2.297-.036 1.506-.752 3 .043 4.523 1.645 3.157 1.385 6.462.842 9.837-.198 1.234-1.235 2.523-.144 3.832l1.031-.167a4.553 4.553 0 004.507-1.222c2.851-2.006 3.059-5.054 3.279-8.101-.513-2.026-.989-4.061-1.546-6.074-.968-3.509-2.427-4.671-6.212-5.048m5.425 13.369c-.118 2.39-1.936 4.356-4.326 4.682a20.125 20.125 0 00-.9-12.338c-.489-1.127-.325-2.839.84-3.319 1.291-.525 2.439.791 2.848 1.932a19.606 19.606 0 011.54 9.05" class="st1"/><path id="Path_539" d="M303.841 156.744c-.765-.684-.678-1.551-1.128-2.261a54.016 54.016 0 00-3.759-11.239 31.292 31.292 0 00-5.223-9.274c-1.246-1.449-2.341-1.852-3.259.388-.863 2.102-1.937 4.119-3.061 6.469-4.758-25.658-14.9-36.093-24.215-39.461.262 1.785.231 3.6-.095 5.376-.879-.866-1.539-1.523-2.211-2.174-4.396-4.297-9.06-8.132-15.166-9.933-4.51-1.329-8.968-2.905-12.72-7.053.215 2.575.375 4.473.541 6.365.044.52.561 1.137-.205 1.504-.591.282-1.104-.007-1.605-.367a42.646 42.646 0 00-3.836-2.637c-3.641-2.062-7.285-4.031-11.794-3.3-4.386.718-8.808 1.103-12.971-1.472-.375 4.793 2.281 7.382 5.858 9.39.068.99.007 1.033-1.576 1.081-5.817.627-9.694 6.151-16.169 6.054 6.775 6.389 14.851 8.983 24.021 10.229-3.479 1.864-6.718 3.12-9.589 6.661 8.226-2.384 14.972 1.643 22.552 2.013a27.428 27.428 0 00-6.339 6.208c9.626 1.199 19.37 1.225 27.842 6.575-3.532.908-6.631 2.574-9.931 3.684-.812.273-2.37.445-2.143 1.807.244 1.449 1.306 2.105 2.95 2.052 3.16-.138 6.254.915 8.66 2.949 4.294 3.667 9.481 5.14 14.717 6.64.735.21 2.353-.155 2.081.826-.467 1.688-.058 4.695-1.523 4.882-4.349.559-2.531 2.79-1.964 4.897.993 3.671 3.164 6.822 5.02 10.469-1.561-.394-2.789-1.586-3.67-.62-.714.785-.242 2.22.053 3.349a75.975 75.975 0 006.324 15.205c1.668 3.271 3.483 6.471 5.232 9.702a26.904 26.904 0 01-5.17-3.845c-1.376-1.268-2.007-1.013-2.486.754a44.584 44.584 0 00-1.509 11.708c.132 3.62.503 7.229 1.11 10.801-3.134-2.397-3.141-2.4-4.51 1.105-1.406 3.592-2.863 7.175-4.17 10.81-1.768 4.917-3.412 9.875-5.148 14.931a26.376 26.376 0 00-5.328-6.363c-.51 2.229-1.001 4.281-1.443 6.345-.457 2.126-2.13 3.637-2.812 5.649l-1.63 3.906c-5.449-4.442-11.058-4.551-14.381-.271a1.745 1.745 0 00-.966 1.408 8.987 8.987 0 00-.801 7.495c.748 2.804 1.497 5.606 2.247 8.41l-.899 3.815a9.154 9.154 0 00-4.228.807c-1.469.963-2.019.537-2.635-1.021-1.473-3.713-2.748-7.572-5.933-10.358-2.379-2.476-6.299-2.67-8.915-.438-.613.463-1.017.774-1.667.234a19.757 19.757 0 00-8.015-9.262 30.652 30.652 0 00-17.7-4.822 6.806 6.806 0 01-6.346-2.826 21.539 21.539 0 00-8.435-6.331c-1.029.685-.503 2.131-1.644 2.757a21.5 21.5 0 00-7.606-12.808c-3.842-3.172-3.849-3.16-6.315 1.144-.056.095-.325.071-.534.109-.15-.555-.275-1.113-.447-1.654-2.43-7.413-5.844-14.359-11.828-19.516-2.093-1.802-2.198-3.072-1.067-4.937 5.294-8.695 4.207-17.597.577-26.371-1.309-3.163-1.341-5.264 1.108-7.9 4.634-4.985 4.325-12.159-.251-17.253-.986-.412-1.932.629-2.928.082-4.902-.062-8.653 2.818-12.995 5.191 1.305-3.233 1.252-6.476 2.732-9.531 2.819 3.009 6.268 3.891 9.922 4.253 1.003.267 1.969.415 2.499-.792 2.564 0 4.373-2.026 6.647-2.561 11.093-2.619 17.752-10.111 22.77-19.615 1.017-1.924.323-2.85-1.296-3.657a19.565 19.565 0 00-6.354-1.462c-.026-.205-.091-.34-.044-.391.434-.508.912-.99 1.331-1.51a20.34 20.34 0 004.7-14.222c-.056-1.227-.39-1.592-1.614-1.795a36.416 36.416 0 00-14.176.415c-1.872.425-3.975 2.583-5.234 1.622-1.303-1.001-1.409-3.639-1.883-5.598-.315-1.305-.865-1.718-2.234-1.431a20.435 20.435 0 00-10.451 5.411c-3.603 3.541-4.623 8.126-5.156 12.924-5.466-2.658-8.119-.831-9.365 6.28a38.643 38.643 0 00-3.108-2.466c-1.89-1.22-3.571-1.569-4.861 1a44.796 44.796 0 00-3.235 7.743 44.049 44.049 0 00-1.063 10.858c-1.388-.702-2.62-1.267-3.794-1.935-1.368-.78-2.217-.602-2.925.924-4.71 10.225-4.895 20.297.875 30.205.389.67 1.006 1.257.903 2.079-.688 5.531.614 10.828 1.889 16.208-4.852-5.51-9.768-10.846-16.33-15.056-2.937 16.164 1.926 28.666 16.102 37.968a26.761 26.761 0 00-7.074.565c-1.455.229-2.212.734-1.732 2.509a47.665 47.665 0 003.865 9.649c2.843 5.448 7.06 10.023 9.869 15.482-.909.911-3.222.343-2.526 2.784 1.704 5.975 4.657 11.019 10.231 14.21 1.539.881 3.173 1.602 4.871 2.451-.737.468-1.523.852-2.345 1.146-3.248.694-2.663 2.787-1.712 4.791a20.192 20.192 0 0011.412 10.992c6.205 2.276 12.408 1.787 18.612.008-2.158 2.381-5.317 3.836-6.668 6.979-1.15.859-.49 1.593.09 2.434a19.11 19.11 0 008.681 6.972c7.375 3.028 14.937 2.42 22.601 1.212.201 1.081-.115 2.225 1.222 2.955 9.592 5.281 21.941 5.181 29.566-4.069 1.55 2.11.014 3.281-1.303 4.672-1.318 1.391-3.047 3.048-2.276 5.01.799 2.034 2.923.295 4.542.548-.014 3.557-.662 6.701-4.509 8.305 6.798 2.92 13.858-.234 13.947-8.52.027-2.582-.658-5.16-.791-7.753-.195-3.627 1.734-4.972 5.116-3.62a17.332 17.332 0 005.579 1.537c4.469.227 7.573-1.948 7.831-6.303.158-2.691 1.083-3.571 3.621-3.822.99-.249 2.023.21 2.497 1.107 4.577 6.181 8.943 7.17 15.723 3.757 2.893-1.456 4.175-1.066 6.03 1.833 2.15 6.674 7.151 8.444 12.385 4.43a19.83 19.83 0 003.55-3.39c.507-.64 1.476-1.158.815-2.205-.689-1.09-1.66-.653-2.611-.434-5.312 1.229-10.049-1.544-11.982-7.105l12.263 1.638c-.46-1.702-.889-2.99-1.148-4.309-.426-2.171-1.613-2.865-3.872-2.831-5.036.078-10.076-.168-15.113-.304-.789-.021-2.017.436-2.019-.917.006-2.706-1.389-5.51.608-8.406.258 1.768 1.628 1.602 2.668 1.795a59.084 59.084 0 0010.701 1.15c9.24.017 18.037-1.431 25.226-7.876 4.462-3.995 4.457-4.391.225-8.163 18.427-2.442 22.068-11.349 25.819-25.928-2.098.147-4.2.29-6.621.455a82.598 82.598 0 008.301-31.268c-2.681 1.59-4.344 4.089-7.435 5.068a178.547 178.547 0 007.171-18.052c4.695-12.436 3.383-24.09-7.176-33.52m-175.772-5.687c.527 2.493-.705 1.357-1.671.99-2.006-3.497-1.413-5.413 2.19-7.077a13.424 13.424 0 00-.519 6.087m11.922-.152c-.581.504-1.197.972-1.732 1.518a3.948 3.948 0 01-4.775.767 3.71 3.71 0 01-2.366-3.928c.366-3.596 1.18-6.473 5.005-7.499a6.975 6.975 0 015.663 2.507c2.037 1.955 1.302 4.452-1.792 6.639m22.602-18.063c1.162.52.417 1.431.021 2.205a36.792 36.792 0 01-16.414 16.66 1.884 1.884 0 01-1.03.47c-.625.095-1.353.688-1.856.021a1.645 1.645 0 01.244-1.886 7.989 7.989 0 00.96-6.815l.03-.051.111.157 13.921-9.129c-.504.078-.996.181-1.479.295l.491-.277a28.78 28.78 0 00-.775.343c-5.056 1.271-9.067 4.414-13.227 7.267l.201.278a7.35 7.35 0 01-5.268-3.322c.207-.27.44-.518.698-.742l-.094.035c-.963.514-1.123.058-.967-.784 5.43-1.452 10.851-2.712 15.806-5.735 2.524-1.54 5.871-.234 8.636 1.001m-2.968-19.537c1.677.201 1.578 1.345 1.537 2.554-.45 7.917-5.74 14.755-13.334 17.237-3.21.792-6.361 1.798-9.576 2.572-6.731 1.574-7.248 1.013-5.509-5.716 3.638-14.068 14.633-18.124 26.878-16.652m-35.868 14.521c.175-6.852 1.463-12.779 7.629-16.787a11.637 11.637 0 013.466-1.424c2.668-.863 3.855.24 4.126 2.874.147 1.049.379 2.085.697 3.096-5.094 5.239-9.092 11.01-9.275 18.655-.023.953-.503 1.11-1.341.648-2.849-1.554-5.413-2.776-5.305-7.072m1.311 9.098c1.467 3.454 1.152 4.838-1.363 6.195-.916.493-1.621.578-1.9-.653 1.436-1.647 1.341-4.178 3.262-5.548m-8.676-6.705a2.146 2.146 0 011.897-2.476c1.497-.234 2.033.747 2.514 1.849 1.69 3.86 1.388 4.79-2.49 7.581-2.01-1.942-1.822-4.509-1.92-6.948m89.254 142.288c.799-1.924 1.161-4.228 3.92-4.452 2.721-.219 4.312 1.451 5.663 3.424a12.032 12.032 0 012.439 5.202 8.519 8.519 0 011.662 5.054c-1.36-.304-1.192-1.229-1.514-1.831-1.65-2.201-2.708-4.838-4.871-6.657-1.768-1.486-3.44-1.812-4.593.74a5.127 5.127 0 00.876 3.369l1.231 1.76a45.944 45.944 0 006.19 4.732c-2.567.244-4.259-1.569-6.302-2.494l-.269-.552a10.644 10.644 0 01-4.422-8.296m7.609 6.198a8.607 8.607 0 01-3.05-4.648 7.087 7.087 0 013.556 3.718c.443.634.113.86-.506.93m4.497 12.09c-.061 1.799-1.322 1.582-2.641 1.753.815-.863 1.313-1.685 2.641-1.753m-13.424.765c-1.08.109-.235-.648-.127-1.179a1.267 1.267 0 001.081-.792c.633-2.466 2.399-2.996 4.647-2.845a3.931 3.931 0 001.702-.364c.138-.069.271-.145.399-.232 1.323.315 2.835-.371 4.06.555-2.68 4.649-7.412 4.423-11.762 4.857m-27.661-36.152c8.817-.421 16.985 1.172 23.06 8.144 2.408 2.764 5.163 5.694 3.771 9.999a6.749 6.749 0 00-2.722-2.978 59.06 59.06 0 00-16.008-12.164l-1.462-.84c-.255 1.305.919 1.261 1.605 1.678l15.64 12.563a7.858 7.858 0 002.965 2.236c.191 1.041.529 2.05 1.001 2.999 1.758 2.555.57 2.655-1.823 2.904-12.801 1.325-20.872-5.825-24.649-17.035-.803-2.384-1.987-4.817-1.378-7.505m2.747 15.307a33.283 33.283 0 009.177 8.435c.342 1.03-.208 1.123-1.013.949-.286-.038-.574-.064-.856-.117-2.66-.5-6.13-.181-7.745-1.743-1.547-1.499.746-4.79.437-7.524m-13.588 9.391a2.31 2.31 0 00-.709.004c-.174-.343-.51-.212-.903.093-.019-.511-.501-1.655.801-.422.268.178.58.28.902.295a.755.755 0 01.355-.322l16.821 4.035c.053.124.088.256.105.388.405.061.813.09 1.222.09a.398.398 0 01.191-.013.87.87 0 00-.048.103c-.091.007-.246-.081-.359-.051a6.811 6.811 0 01-.999-.072c.004.222-.142.342-.594.256-4.389 1.945-8.493 2.318-12.271-1.496a18.3 18.3 0 00-4.523-2.5.81.81 0 01.071-.36l-.067-.018m-8.488.568c-.161-.484-.63-1.112.142-1.469.571-.266 1.078.059 1.564.417 2.405 1.763 2.314 4.086-.57 6.567a21.76 21.76 0 00-1.136-5.515m-7.495-12.828c-.648-1.222 1.026-1.225 1.101-2.066l.011-.011a4.262 4.262 0 001.923-2.247c2.221.346 3.214 2.695 5.418 3.161 1.416-1.415 1.509-3.588 2.868-5.714a23.848 23.848 0 009.452 14.948c-7.56-1.23-14.13-4.747-20.769-8.072m-7.856-15.246a3.052 3.052 0 012.185-3.021c.584-.336 1.15-.718 1.758-1.004 3.299-1.555 4.617-.982 5.965 2.42 1.158 2.92 2.516 5.811-.843 8.256-3.452 1.312-6.178.024-8.348-3.945-.352-.872.009-1.928-.719-2.702m6.069 10.016c1.181.227.762.746.423 1.339-4.237 1.38-6.656-.383-6.576-4.798a14.702 14.702 0 006.154 3.458m15.729-13.752c.271-1.775.952-2.391 2.651-1.144 4.472 3.277 8.153 7.085 9.548 13.602 1.937 3.538 1.882 8.222 1.521 12.951-.141 1.845-.627 2.507-2.704 1.623-8.23-3.516-12.556-10.801-11.947-20.762.131-2.1.612-4.181.931-6.27M150.15 235.34c.595-1.427 1.369-1.342 2.385-.497a18.414 18.414 0 015.748 6.749 14.003 14.003 0 012.194 7.812 28.775 28.775 0 01-2.006 13.258c-.218.633-.406 1.873-1.348 1.314-.94-.561-2.559-.873-2.288-2.565a6.312 6.312 0 01.605-1.917c2.496-4.746.265-8.753-2.061-12.69a5.193 5.193 0 00-5.781-2.558 25.499 25.499 0 012.549-8.911m-14.681-18.998a44.575 44.575 0 0111.153 22.776c.59 3.879-1.56 6.64-4.771 8.643a9.626 9.626 0 01-2.677 3.689l-2.772 4.092a20.081 20.081 0 01-4.428-6.389c-.893-3.555-1.9-7.079-2.845-10.62-.766-7.694 1.322-14.845 4.289-21.827.547-1.288 1.16-1.381 2.053-.357m-15.563 4.402c4.124.174 7.204-2.218 10.704-3.414a.41.41 0 01.482.193c-2.049 6.214-3.983 12.451-3.734 19.101a46.1 46.1 0 01.074 5.77c-3.925-6.646-5.445-14.097-7.527-21.652m10.781-14.371c.095 2.622.53 5.564-2.47 7.125-2.352 1.222-4.24.466-5.835-2.083-2.194-3.511-2.113-5.893.265-7.815a5.675 5.675 0 003.346-.825c3.693-.575 4.569-.012 4.694 3.598m4.567-3.163c-1.004.058-.945-1.04-1.554-1.435a7.173 7.173 0 011.191 2.708c-.164.661-.694 1.695-.889.261-.489-3.586-2.638-5.095-5.903-5.632l.52-6.386-.644-.044-1.717 6.276c-2.648 1.057-5.7 1.106-8.284 4.004.761-10.907 5.366-18.968 12.438-26.353 3.832 8.78 7.854 17.042 4.834 26.604m-11.017-39.948a12.602 12.602 0 011.846-.807c2.976-.925 6.009-1.65 9.003-2.506 4.067 4.071 3.291 11.454-2.023 16.461-.829.781-1.118.345-1.46-.364-.875-1.815-1.734-1.167-2.764-.072a52.335 52.335 0 00-10.441 16.22c-1.916-.343-1.772-2.034-2.12-3.328-.34-1.259-.118-2.665-1.051-3.764-1.17-8.974.897-16.638 9.013-21.836m-12.294 19.256c-3.127-7.164-3.059-7.715 1.47-11.471l-1.47 11.471m-9.027-29.623a28.661 28.661 0 013.084-21.744c.865-1.497 1.603-1.558 2.906-.626a15.174 15.174 0 015.385 7.393c2.163 5.986 4.148 12.07 3.51 18.59a22.095 22.095 0 01-7.282 14.818 38.717 38.717 0 01-5.945-12.286 16.407 16.407 0 00-1.66-6.14m17.195 60.891a28.404 28.404 0 002.41 2.821c-3.603 1.445-5.422-.441-4.97-5.095.447-.314-.487-1.394.724-1.285a34.68 34.68 0 001.836 3.559m-8.566-19.188l-3.66-3.107 3.476-2.421c.417 1.815.479 3.692.181 5.53m-19.398-36.559a39.14 39.14 0 012.356-8.317c.564-1.538 1.348-1.634 2.601-.815 2.121 1.391 4.076 2.695 4.405 5.657a26.05 26.05 0 003.533 10.043c2.416 4.164 2.842 8.752 3.654 13.215.489 2.682 1.926 5.236 1.417 8.088-3.278-6.479-5.876-13.304-9.865-19.439.1 1.542.412 3.064.927 4.523 1.709 4.684 3.054 9.52 5.584 13.872.729 1.254 1.47 2.973 3.322 1.093-.695 3.695-1.95 4.307-4.616 2.055-9.297-7.853-15.005-17.304-13.327-29.981m4.835 25.509c.895-.357 1.161.349 1.467.691a115.953 115.953 0 0013.102 12.313 3.643 3.643 0 011.539 3.154c-.013 4.031.179 8.062.286 12.094.02.621.601 1.449-.261 1.795-.667.263-1.242-.393-1.778-.795a31.54 31.54 0 01-11.492-15.227c-.744-2.801-1.5-5.598-2.269-8.392a20.476 20.476 0 01-.588-5.634m20.67 45.351c.154.531.373 1.151-.501 1.333a20.94 20.94 0 01-2.49-2.791c-.503-.799-2.896-.781-1.115-2.956.554-.679-1.322-3.345-2.123-5.082-.833-1.809-1.711-3.599-2.822-5.931 2.544.558 3.872 2.107 5.537 3.021 1.477 4.051 2.321 8.277 3.517 12.406m-29.749-20.15c-5.549-7.291-7.116-15.557-5.636-24.988 13.514 10.7 21.976 24.151 28.895 38.761-5.698.398-17.862-6.68-23.259-13.773m11.228 30.923a61.556 61.556 0 01-8.824-16.018c-.907-2.524.605-2.822 2.359-2.968 7.567-.712 15.052 2.013 20.359 7.408a30.555 30.555 0 015.768 7.558 12.686 12.686 0 00-10.587-2.502c-.342-3.05-3.532-3.283-5.127-5.092a3.499 3.499 0 00-2.457-1.641 3.397 3.397 0 002.044 2.415l3.856 4.852a15.288 15.288 0 00-7.391 5.988m14.401-2.439c1.929 2.894.376 5.249-1.261 7.527a5.048 5.048 0 01-5.789 2.086c-.654-.712-1.343-1.398-1.96-2.141-3.043-3.665-2.58-5.466 1.878-7.331 2.356-.986 4.721-1.915 7.132-.141m4.381 3.38c.339-1.59.912.028 1.363-.083l.788 2.78c-1.209 2.808-1.235 2.815-5.094 3.578a19.195 19.195 0 002.943-6.275m-14.663 14.359c.312-1.124-.534-1.934-.822-2.893-.531-1.77-.356-2.99 1.925-2.866l1.097.347a6.093 6.093 0 013.9.785 5.846 5.846 0 006.562.085 26.1 26.1 0 012.416-.982c4.436-2.065 5.171-1.836 7.703 2.405l10.358 10.523c-7.243.49-13.341 4.633-20.484 2.705-5.571-1.244-10.243-4.977-12.655-10.109m32.4 28.028c-10.075 2.333-19.176-1.816-23.413-10.623-.749-1.555-.825-2.413 1.131-3.294a13.457 13.457 0 016.894-1.744c3.274.287 6.275-1.17 9.405-1.825 2.351-.492 4.549-1.723 7.057-1.458a28.093 28.093 0 01-4.713 1.665 29.33 29.33 0 005.156-1.663c1.574-.273 2.449.726 3.685 1.497 4.151 2.595 6.713 7.366 11.885 8.498.637 1.11-.323 1.191-.966 1.435-1.247.477-2.737.246-3.788 1.299l-4.992 4.277c-2.392.849-4.972.983-7.338 1.928m19.102.857c.11.569.249 1.133.315 1.708.302 2.39-.269 4.459-2.594 5.578-1.725.826-6.577-.633-7.58-2.009a2.168 2.168 0 01-.077-2.199 38.966 38.966 0 011.838-4.239 4.386 4.386 0 014.604-2.833c2.459.242 3.118 1.983 3.489 3.999m10.291 15.908c-8.526 1.202-17.004 2.09-24.852-2.77a16.374 16.374 0 01-5.217-5.325 17.234 17.234 0 016.807-6.343c-1.064 4.075.248 6.718 3.861 8.003a13.129 13.129 0 009.559.439c2.62-.977 5.61-.936 6.428-4.29a17.009 17.009 0 012.383-4.89c.073.011.135.072.215.048-.368-.129.16.047-.207-.092l-.093-2.754c3.48.596 6.176 2.654 8.936 4.633 1.073.771.842 1.363-.044 1.979a16.442 16.442 0 00-6.697 10.147c-.144.61-.397 1.107-1.068 1.202m13.74 6.371a30.837 30.837 0 01-10.113-2.576c-1.51-.623-1.644-1.555-1.443-2.973.919-8.062 7.733-14.194 15.914-14.323 6.392-.328 12.817 0 19.228.076 2.654.025.692 1.756.94 2.675a85.851 85.851 0 01-7.109 9.216c-4.75 4.92-10.184 8.29-17.415 7.909m43.578-14.277c.171 5.133-2.863 7.473-7.895 6.036-.93-.266-1.821-.672-2.727-1.021-5.198-1.999-8.737.686-8.184 6.229.239 2.394.702 4.778.741 7.175a6.541 6.541 0 01-3.182 6.379 4.31 4.31 0 01-3.237.674c-.027-.008-.04-.148-.011-.215.043-.086.097-.168.16-.242 1.641-4.398 1.288-8.9.805-13.434-.624-5.831 2.597-9.718 8.15-10.007 1.523.076 3.033.308 4.509.689l3.185.783c1.97.27 3.752.056 4.872-1.862.266-.616.543-1.232.799-1.852a1.094 1.094 0 011.388-.731c.755.191.608.816.627 1.398m4.072-3.724a3.807 3.807 0 01-5.248-.653c-1.011-1.403-1.818-3.497.427-4.966a5.757 5.757 0 002.16-.335 3.46 3.46 0 01-1.732.086c1.584-1.387 3.755-1.158 5.542-1.983 2.935 1.298 3.436 2.723 2.278 6.489a14.763 14.763 0 00-3.426 1.349m26.563 2.852c2.197 4.495 6.851 7.29 11.885 7.139-4.416 4.196-6.799 4.311-9.727.629-1.093-1.448-1.197-3.452-2.685-4.674-1.687-2.331-3.982-2.12-6.375-1.497l-3.104 1.718c-3.285 1.417-6.58.612-9.365-2.312a12.78 12.78 0 01-2.482-3.547c.846-1.958 1.842-1.305 2.865-.16a10.12 10.12 0 003.694 3.177c1.905 1.275 4.492.78 5.778-1.109a2.3 2.3 0 00.075-.116c3.266-4.046 6.555-3.682 9.441.752m-16.636-3.309c1.962-.064 3.614.072 5.064-.908.574-.388 1.345-.623 1.789.072.419.648-.417.924-.742 1.323-2.149 2.636-2.944 2.597-6.111-.487m6.381-16.761a27.297 27.297 0 00-.62 10.132c.429 3.131-1.365 4.333-5.723 4.654-1.192-.593-3.711-.476-3.563-1.366.531-3.126-3.56-4.164-2.825-7.122l.389-2.48c-.671-3.518-2.413-6.804-2.529-10.443a1.885 1.885 0 01.001-.932c-.264-1.373.677-2.442.944-3.681l.852-1.555 1.35-.493c3.164-2.355 9.311-.444 10.927 3.5a14.224 14.224 0 01.791 9.8m59.979-116.432c-.021.141-.04.285-.057.429.005-.145.023-.289.057-.429m-11.633-17.642c.275-.589.672-1.453 1.144-1.548.819-.165 1.164.808 1.547 1.412a63.208 63.208 0 017.851 20.401c-.546 5.924-.672 11.897-2.409 17.67a42.28 42.28 0 01-4.356 10.072c-1.023 1.67-1.766 1.24-2.663.018-2.916-6.853-5.487-13.796-5.916-21.333a54.8 54.8 0 014.798-26.695m-12.763 34.938a17.348 17.348 0 012.708-12.274 11.42 11.42 0 013.74 6.25 77.028 77.028 0 003.43 13.632c-2.888-3.191-2.851-7.851-5.721-11.057 1.335 5.413 2.247 11 6.613 15.489l.006-1.742 3.168 5.235a14.783 14.783 0 01-2.439 4.66c-1.145-.237-.765-1.568-1.648-1.849-1.698-3.497-4.826-5.875-7.143-8.887-1.144-3.086-1.731-6.327-2.714-9.457m5.365-37.979a19.542 19.542 0 001.536 5.468 34.49 34.49 0 01-.373 15.142c-.208.787-.138 1.969-1.208 2.076-.811.079-1.208-.849-1.541-1.542-1.664-3.461-3.302-6.935-4.959-10.399-.454-.949.172-1.654.506-2.434a63.619 63.619 0 004.194-10.427c1.883-.401 1.684 1.151 1.858 2.117m-18.57-29.932c11.313 6.99 16.954 17.193 14.753 28.986-.13.664-.316 1.316-.557 1.949-1.019 2.73-1.289 2.781-3.353.734-2.89-2.867-5.891-5.634-8.657-8.613-3.62-3.9-5.463-8.308-3.409-13.7 1.11-2.91.899-6.06 1.224-9.352m-29.199-8.203c-.138-1.057-.443-2.099.447-2.99a97.299 97.299 0 0010.006 3.932c6.792 2.11 11.502 7.023 16.085 12.026 1.318 1.438.124 3.017-.446 4.476a4.426 4.426 0 00-2.1-2.619c-3.544-2.64-7.096-5.273-10.65-7.901-.541.038-.826.219-.409.759a96.833 96.833 0 0013.066 10.243 12.729 12.729 0 00.49 9.424c-6.09-4.242-12.241-6.877-17.418-11.047-3.96-3.188-6.072-7.618-7.921-12.187.007-1.479-.962-2.685-1.157-4.115m1.61 15.412c2.596.017 5.53-.47 6.844 2.993-2.335-.03-4.607-.056-6.881-.092-.936-.014-1.145-.925-1.714-1.394.584-.528 1.171-1.511 1.751-1.507m-5.495-12.314c1.1-.155.859 1.256 1.103 1.985.506 1.504.856 3.057 1.47 5.329-2.002-1.692-3.261-2.973-3.742-4.745-.278-1.032-.037-2.4 1.169-2.569m-27.45-8.154c5.04.896 9.321.229 13.635.008 4.314-.22 7.834 2.514 11.317 4.815.339.223.623.712.212.917-1.732.866-2.093 3.898-5.294 2.633-2.442-.96-5.344-.773-8.029-1.153-4.873-.42-9.263-3.096-11.835-7.222m-9.338 15.04l6.64-3.643c3.168-.934 6.399-1.634 9.573-2.545a45.465 45.465 0 0113.875 1.089c.983.057 1.846.67 2.215 1.576 1.477 3.629 3.492 6.869 7.659 8.28-13.998 4.034-27.221 3.499-39.964-4.759m25.006 14.463c-2.789-1.17-5.882-.945-9.26-1.514a13.155 13.155 0 016.158-2.818c5.304-1.117 10.595-2.199 16.116-1.78 2.711.205 2.682 2.155 3.195 3.75.641 1.996-1.362 1.76-2.339 2.143a17.79 17.79 0 01-13.867.218m4.705 8.05a24.049 24.049 0 0110.652-6.893 2.542 2.542 0 013.55 1.346c1.523 2.763 3.312 5.38 5.301 8.558a111.531 111.531 0 00-19.502-3.006m19.948.673a49.998 49.998 0 01-7.178-13.253 28.414 28.414 0 0114.854 3.109c9.233 4.401 16.121 11.609 23.124 18.697 1.218 1.23 1.152 1.466-.199 4.986l-6.951-4.695c1.963-.453 1.057-1.314.258-2.059a77.401 77.401 0 00-11.87-9.239 2.537 2.537 0 00-2.352-1.117 2.844 2.844 0 001.936 1.836c3.614 3.547 8.013 6.253 11.247 10.215a38.396 38.396 0 00-13.177-1.958c-4.797.089-7.19-3.374-9.686-6.524m14.547 21.158c-3.279-1.192-6.671-2.239-9.075-5.012l-3.546-1.953-2.016-.78-4.452-.572a31.46 31.46 0 0114.082-4.356c7.555-1.212 15.216 1.429 20.381 7.027 2.372 2.459 3.002 5.756 4.486 8.8a10.717 10.717 0 00-11.703-1.614c-2.566 1.069-5.512-.582-8.149-1.535m7.656 9.145c.071-.458.261-.801.803-.798l3.375 5.013c-2.633-1.045-3.896-2.182-4.18-4.221m-1.784 7.07a4.945 4.945 0 00-.613-3.055c-.523-1.284.023-1.781 1.125-2.092a14.497 14.497 0 004.789 4.072c1.416.602 2.621 1.305 4.311.295 1.509-.904 1.942.175 1.838 1.678a25.006 25.006 0 001.942 13.005c-5.519-1.383-10.555-6.646-13.392-13.895m.312 8.888a47.884 47.884 0 0121.893 17.07c.252.6.279 1.319.935 1.703.591 2.462-.588 4.414-1.863 6.336-.923-3.769-3.346-6.578-5.999-9.243-.42-.816-.738-1.746-2.378-1.815l1.728 2.027c1.956 3.202 3.769 6.506 6.646 9.044l-3.862 9.348c-4.7-4.472-16.501-28.091-17.096-34.476m15.642 37.754a6.693 6.693 0 01-1.13-3.465c.962 1.061 2.311 1.773 1.13 3.465m-3.923-8.044c-.648-.451-1.416-.74-1.041-1.75 1.085.15 1.022.928 1.041 1.75m-8.803-1.756c.135-.853.345-1.701.538-2.541.085-.376.215-.74.35-1.192a38.186 38.186 0 018.322 8.918c4.651 6.478 3.076 20.645-2.295 25.426-1.331 1.185-1.661 1.456-2.403-.401-3.889-9.731-6.174-19.675-4.512-30.21m13.639 24.96c1.634 2.566 1.16 5.278 1.876 7.711-.407 3.033-.876 6.067-1.208 9.111-.776 7.081-4.958 11.906-10.915 15.109-6.639 3.571-13.417 6.978-20.911 8.594-1.172.253-2.299.705-3.023-.722 6.931-8.033 13.861-16.067 20.789-24.101 4.446-5.171 8.848-10.375 13.388-15.698m-17.398-6.401a11.061 11.061 0 014.339 6.137c.925 3.148 1.731 6.329 2.596 9.493-1.761 3.54-4.728 6.123-7.268 9.044.491-3.832 1.674-7.591 1.265-11.52.235-.706.462-1.411-.228-2.04-.548.414-.52.986-.53 1.545-.897 3.986-1.829 7.962-2.643 11.964-.103.506-1.048 1.85.758 1.712l-8.104 9.646c-.251-13.033 5.921-24.038 9.814-35.983m-19.446 32.276c2.392-2.326 2.993-5.51 3.995-8.547a12.471 12.471 0 012.588 14.341 39.151 39.151 0 01-4.473 6.706l-1.839 1.182c-.895-4.661-2.682-9.14-.272-13.676m38.642 11.538a26.265 26.265 0 01-13.085 7.674 53.293 53.293 0 01-22.525.284c-.52-.092-1.294-.006-1.396-.75-.098-.722.473-.857 1.103-1.014 8.153-2.031 15.507-5.988 23.074-9.45a13.929 13.929 0 0112.135-.222c1.804.852 2.255 1.792.694 3.472m22.103-29.541c1.333-.03 1.378.53 1.118 1.616-3.302 13.807-12.16 20.893-26.179 20.892-.544-.001-1.219.397-1.573-.275-.328-.633.315-1.017.601-1.496.825-1.403 1.628-2.815 2.44-4.225 2.252.968 3.987-.571 5.825-1.548l-5.819 1.547c.442-2.729 1.66-3.992 4.795-4.565 5.68-1.04 9.824-4.99 13.008-9.612 1.576-2.287 3.546-2.28 5.785-2.329m3.237-28.765c-1.628 11.671-4.103 22.321-11.006 31.397a19.495 19.495 0 01-10.858 7.407c-2.157.551-3.056.411-2.523-2.151.529-2.545.678-5.154.444-7.743.662-1.054-.328-2.302.56-3.548a5.824 5.824 0 007.032.91 18.85 18.85 0 006.074-4.811c3.455-4.136 3.596-8.281.385-12.534-.058-.277-.271-.709-.157-.826a53.98 53.98 0 0110.043-8.102m-13.834 8.842c-3.514 4.382-6.451 8.69-9.391 13.164-1.678-5.341 2.477-11.279 9.391-13.164m12.146-25.059a48.457 48.457 0 01-8.887 22.361 6.23 6.23 0 01-1.087.917c-6.136.494-10.652 3.235-12.901 9.133-.135.46-.343.898-.615 1.295a2.275 2.275 0 01-2.059.893c-1.131-.205-.617-1.283-.581-1.9.503-8.63 3.452-16.543 7.328-24.179.784-1.545 1.587-3.079 2.38-4.619a119.743 119.743 0 0113.951-18.828 27.234 27.234 0 012.479 14.929m1.644-2.977c.765-5.718-2.221-10.146-3.403-15.027a1.905 1.905 0 00.688-2.442c-1.172.626-.886 1.552-.688 2.442l-3.866 3.992c.598-6.009 1.291-11.837 1.457-17.867 8.949 6.15 10.385 22.82 5.812 28.902" class="st1"/><path id="Path_540" d="M122.045 272.085a7.397 7.397 0 003.774 1.525c1.581.35 3.127 1.069 4.875.185l-4.423-.914a7.245 7.245 0 00-4.226-.796" class="st1"/><path id="Path_541" d="M133.922 274.489c-.677-.564-1.549-.85-2.123-.167-.286.338.497.521.949.506 1.326.297 2.7.316 4.034.058a2.649 2.649 0 00-2.859-.391" class="st1"/><path id="Path_542" d="M194.773 290.817l-8.999 4.906.058.338a4.014 4.014 0 00-.06-.339c-1.637.093-2.91 1.144-4.395 1.641l-6.718 1.785.141.52 6.705-1.783c1.487-.499 3.195-.442 4.328-1.775a15.31 15.31 0 008.929-5.288" class="st1"/><path id="Path_543" d="M137.654 243.531l-3.808-14.082a18.778 18.778 0 003.808 14.082" class="st1"/><path id="Path_544" d="M147.776 122.238a35.513 35.513 0 00-9.622 7.325c4.08-1.456 7.01-4.575 10.434-6.973-.083-.541-.309-.757-.812-.352" class="st1"/><path id="Path_545" d="M152.917 119.153c-.665-.28-.972.379-1.467.483l.222.881c.503-.362 1.124-.623 1.245-1.364" class="st1"/><path id="Path_546" d="M109.959 154.593a9.316 9.316 0 00.123-3.696 7.613 7.613 0 00-.124-3.387 24.636 24.636 0 00-.833-9.952c-.027-.616.141-1.403-.96-1.074.631 3.489.023 7.088 1.019 10.537-.738 1.182.228 2.29.152 3.442a12.167 12.167 0 00.151 4.271c.221.167.376.107.472-.141" class="st1"/><path id="Path_547" d="M104.346 214.632a80.705 80.705 0 01-11.942-10.886l-2.408-4.059-2.667-4.506c-.184 1.929.869 3.018 1.52 4.263 1.036 1.706 1.447 3.777 3.07 5.14a27.333 27.333 0 009.223 10.604c1.187.874 2.264 1.138 3.197-.557" class="st1"/><path id="Path_548" d="M114.592 256.775a13.713 13.713 0 006.866 1.292c1.372.432 2.581-.082 4.617-.881l-4.099.079-6.922-1.25a3.154 3.154 0 00-3.128-.726 4.693 4.693 0 002.666 1.486z" class="st1"/><path id="Path_549" d="M127.383 169.23a2.268 2.268 0 00.94-2.098 4.42 4.42 0 00-.886.733c-.279.487-.486 1.016-.721 1.528a41.04 41.04 0 00-8.337 16.463c5.346-4.319 6.433-10.861 9.004-16.626" class="st1"/><path id="Path_550" d="M170.123 264.899l.031.037c.001-.03-.001-.058.001-.088l-.032.051z" class="st1"/><path id="Path_551" d="M175.726 271.659l-5.573-6.722c-.111 2.588 1.678 4.965 5.573 6.722" class="st1"/><path id="Path_552" d="M168.466 263.545c.38.655.496 1.647 1.653 1.316-.145-1.41-1.205-2.427-1.634-3.713-.625-1.533-.336-3.468-2.493-5.233.89 3.079.89 5.582 2.477 7.633" class="st1"/><path id="Path_553" d="M170.153 264.847l-.037.01.011.04.031-.051" class="st1"/><path id="Path_554" d="M128.134 128.828a33.861 33.861 0 003.158-10.848c-2.111 3.329-4.228 6.654-3.158 10.848" class="st1"/><path id="Path_555" d="M291.868 208.442L289.06 214l.774.449c1.936-1.196 2.107-3.537 2.879-5.487a5.175 5.175 0 00.803-3.978l-1.648 3.458z" class="st1"/><path id="Path_556" d="M294.117 204.362a3.142 3.142 0 001.342-2.862c-.915.938-1.445 1.617-1.342 2.862" class="st1"/><path id="Path_557" d="M295.647 175.52l.053-1.824c-.18-4.73.221-9.49-.737-14.181-.764-.517-.281-1.698-1.171-2.147.063 5.305.453 10.602 1.17 15.861l-.182 1.328c.194.404.323.862.86.959" class="st1"/><path id="Path_558" d="M294.718 158.011a7.467 7.467 0 00-.406-3.6 6.573 6.573 0 00-.55-4.175 3.509 3.509 0 00-.755-3.338l.211 3.506.352 3.514.208 2.954c.453.263.32 1.006.94 1.139" class="st1"/><path id="Path_559" d="M267.838 252.056l-10.342 11.393a5.156 5.156 0 005.057-2.545c2.01-2.816 4.024-5.63 6.043-8.441a4.996 4.996 0 001.714-3.648l-2.472 3.241" class="st1"/><path id="Path_560" d="M271.13 249.065a.82.82 0 001.11-.311.805.805 0 00-.313-1.1.82.82 0 00-1.11.311.804.804 0 00-.003.785c-.005.106.285.335.316.315" class="st1"/><path id="Path_561" d="M245.15 99.4c.108-.63-.738-.928-1.821-1.01.212.345.453.672.718.979.359.319.927 1.052 1.104.037" class="st1"/><path id="Path_562" d="M220.493 103.619l-4.782.011a23.134 23.134 0 00-8.993.698.75.75 0 01-.362.297l.362-.297-2.158.428c-1.61-.5-2.845.39-4.121 1.232l3.054-.316 2.138-.451c3.212.236 6.443.01 9.592-.671 1.812.182 3.64.095 5.426-.26.811.516 1.615.124 2.42-.024.571.391 1.134.576 1.976-.281l-2.143-.285-2.408-.076" class="st1"/><path id="Path_563" d="M268.154 109.362c1.113 6.449 4.05 12.136 7.449 17.629a35.373 35.373 0 00-7.449-17.629" class="st1"/><path id="Path_564" d="M275.989 221.775l-1.299-5.126-1.952-7.218-.459.113 1.329 7.418.835 2.873c.872 3.174 1.218 6.499 2.875 9.474.556-2.677-.829-5.036-1.326-7.536" class="st1"/><path id="Path_565" d="M270.755 146.177a4.293 4.293 0 002.185 1.182c.299.319.92.852 1.026.424.191-.783-.67-1.189-1.308-1.561l-1.417-.876a25.304 25.304 0 00-18.316-4.784c-.574-.432-1.182-.195-1.785-.09l-1.343-.256c-.225.119-.436.26-.631.424.298.71.986.469 1.544.566l2.393-.018.784.393c5.926.417 11.408 2.467 16.868 4.596z" class="st1"/><path id="Path_566" d="M222.257 95.075c-1-.836-1.91-.856-3.534-1.068a3.821 3.821 0 003.534 1.068" class="st1"/><path id="Path_567" d="M281.28 142.669l-.117 1.797c-.571.843.036 1.65.08 2.476-.305.599-.53 1.311.383 1.42.61.075.425-.61.38-1.03a3.547 3.547 0 00-.053-2.377 3.725 3.725 0 00.041-2.403 1.5 1.5 0 00-.315-2.109c-.009-.006-.017-.013-.026-.018a2.558 2.558 0 00-.382 2.249" class="st1"/><path id="Path_568" d="M248.022 260.451c.385.131.459-.879.499-1.427.231-1.024.769-2.009.409-3.11a3.119 3.119 0 00.105-3.431 4.471 4.471 0 00-.803 3.028 5.23 5.23 0 00-.392 3.083c-.328.672-.756 1.528.192 1.85" class="st1"/><path id="Path_569" d="M237.59 123.795c-1.029.459-2.031.969-3.221 1.544 1.432.425 2.49-.27 3.621-.338.567-.034.992-.223.796-.832-.181-.563-.726-.585-1.196-.374" class="st1"/><path id="Path_570" d="M264.417 268.741c-1.254.525-2.996-.072-3.749 1.602a25.042 25.042 0 009.872-2.651c-2.202-.377-4.131.497-6.126 1.044" class="st1"/><path id="Path_571" d="M306.893 167.321c-.174.323-.44.609-.378.744.185.401-.614 1.349.422 1.147.399-.078.41-1.133-.044-1.89" class="st1"/><path id="Path_572" d="M233.98 189.939c4.151-5.479 8.107-11.105 12.129-16.68 3.346-4.64 6.678-9.288 10.28-14.3-4.205.866-7.825 1.634-11.459 2.355-9.176 1.821-18.357 3.609-27.533 5.438a2.98 2.98 0 01-3.46-1.288c-2.801-3.809-5.836-7.448-8.763-11.166-5.307-6.742-10.603-13.492-16.125-20.518-.281 1.288-.538 2.191-.668 3.112a12393.549 12393.549 0 00-5.213 37.456c-.217 1.6-.648 2.558-2.416 3.009-3.395.869-6.707 2.051-10.058 3.092-9.028 2.805-18.054 5.609-27.08 8.41-.429.133-1.13.11-1.02.723.043.237.808.349 1.245.517l4.829 2.13a.301.301 0 00.443.157c8.475 3.873 16.981 7.666 25.658 11.072l.041.013a7.125 7.125 0 003.383 1.487c.568.846 2.083.494 2.05 2.322-.14 7.978-.023 15.961.095 23.94.071 4.841-.5 9.7.346 14.523a6.014 6.014 0 00.245 4.632c1.268-1.985 2.967-3.148 3.752-5.04l1.506-1.709c2.135-2.469 4.321-4.915 6.412-7.43 5.819-6.993 11.925-13.753 17.404-21.025.909-.726 1.762-.291 2.69.035a9880.089 9880.089 0 0034.418 12.068c2.838.99 5.703 1.907 8.802 2.939a6.265 6.265 0 00-.348-1.246c-7.21-11.517-14.394-23.048-21.682-34.514a3.35 3.35 0 01.09-4.519m-82.133.979c-.001-.007.011-.017.017-.024l.026.011a.438.438 0 01-.043.013m24.5 8.479l-23.602-8.13c-.309-.969.256-.945.929-.808 11.689.311 23.376.621 35.063.929 4.829.123 9.659.196 14.489.292a.755.755 0 01.033 1.176 111.493 111.493 0 00-12.801 7.957c-2.503 1.712-4.752 2.309-7.453.777a5.972 5.972 0 00-1.688-.383c-.879-.301-2 .048-2.62-.959a3.872 3.872 0 01-2.356-.85m32.892 8.689c.583 2.024.651 3.711-.897 5.256-6.804 8.208-13.602 16.42-20.394 24.638-.758.921-1.412 1.828-2.754 1.783l.375-1.057a2.921 2.921 0 011.177-2.822l17.31-42.667c.175-.535.459-.924 1.111-.798 1.339 5.228 2.574 10.483 4.069 15.667m-5.749-16.852a152.473 152.473 0 00-13.036-9.2 3.901 3.901 0 01-2.101-3.955c.845-11.126 1.524-22.264 2.284-33.395.15-.982.355-1.955.614-2.914 3.452 12.766 6.654 24.766 9.958 36.739a88.484 88.484 0 003.57 12.201c.036 1.297-.667.807-1.291.525m43.177 29.911c.402.671.53 1.469.355 2.229l-41.355-31.051-.051-.007.021-.014a.572.572 0 01.601-.322c6.295.167 12.592.356 18.887.476.788.02 1.509.449 1.896 1.13 6.567 9.174 13.118 18.359 19.653 27.553m-38.454-31.605a9.341 9.341 0 01-2.382 1.01.546.546 0 01-.691.112c2.13-4.853 4.274-9.7 6.378-14.566a3.28 3.28 0 012.286-2.319c10.646-2.756 21.266-5.6 31.898-8.407.138-.037.315.072.758.195-2.229 2.24-5.007 3.405-7.456 4.951-10.206 6.444-20.534 12.672-30.791 19.024" class="st1"/><path d="M238.234 335.794c-.014-.8-.009-1.601.032-2.405a4.535 4.535 0 013.291-4.346 5.156 5.156 0 015.543 1.679c1.316 1.531 2.376 3.248 3.205 5.072h6.175c-1.599-3.017-3.795-5.628-6.48-7.353-6.223-3.993-13.046-1.833-15.749 4.995-.31.784-.529 1.57-.706 2.358h4.689zm15.17-9.882c2.019-1.448 2.72.165 3.442 1.582 1.41 2.765 2.814 5.533 4.219 8.301h6.486c.144-.12.337-.233.59-.351 1.469-.683 2.777-.584 4.119.351h2.845c-1.359-2.799-2.75-5.585-4.253-8.308-.396-.72-.256-2.404-1.583-1.986-1.365.431-.258 1.651-.118 2.492.333 2.006.359 3.901-1.483 5.232-.668.483-1.502 1.007-2.117-.278-1.45-3.04-2.997-6.034-4.467-9.064-.355-.735-.44-1.527.45-2.014 5.027-2.749 7.751-3.79 11.221 1.298.388.555.893 1.024 1.308 1.561.31.401.291 1.281 1.15.846.742-.377.388-.905.105-1.446-1.204-2.312-2.457-4.593-3.523-6.961-.92-2.045-2.056-2.075-3.832-1.008-1.987 1.189-4.148 2.089-6.227 3.131a3129.2 3129.2 0 00-9.328 4.709c-.615.314-1.292.653-.858 1.518.434.865.989 1.015 1.854.395zm61.362-52.264c.63.302 1.187.723 1.65-.219.57-1.168 1.685-1.154 2.765-1.174 4.556-.089 9.112-.172 13.667-.247.952-.017 2.128-.312 2.643.722 1.228 2.469 3.034 4.661 4.509 7.01v-3.664a25.448 25.448 0 01-2.264-4.177c.773-.014 1.521-.031 2.264-.048v-5.275c-1.382.02-2.763.044-4.144.057-.537.007-1.284.338-1.615-.291-2.419-4.583-6.925-8.15-6.996-13.871a1.187 1.187 0 00-.932-1.215c-.712-.315-1.033.161-1.316.723-1.09 2.164-2.197 4.317-3.299 6.472-.219.428-.541.886.093 1.21.47.243 1.021.814 1.529.196 1.956-2.381 3.338-.545 4.432.773a67.16 67.16 0 014.034 6.055c-3.485.051-6.463.155-9.439.113-1.493-.021-2.184-.761-1.319-2.261a.946.946 0 00.225-.466.958.958 0 00-.785-1.106c-.843-.335-1.237.079-1.584.77a876.883 876.883 0 01-4.358 8.531c-.28.549-.546 1.006.24 1.382zm14.659-30.056c3.514 2.454 7.05 4.872 10.575 7.309v-2.061l-4.596-3.135 4.596.073v-5.073c-3.207-.074-6.414-.152-9.622-.196-.829-.013-2.222-.85-2.685.79-.425 1.505.956 1.749 1.732 2.293zm3.235-10.996c.766.058 1.285.079 1.331-.939.08-1.889 1.369-2.03 2.886-1.791l3.123.48v-5.305c-.425-.077-.851-.146-1.274-.23-1.171-.232-2.916.158-3.194-1.388a4.919 4.919 0 011.63-4.725A4.566 4.566 0 01340 217.59v-5.092c-3.249.603-5.386 2.882-6.237 6.992-.799 3.869-1.275 7.798-1.917 11.688-.12.726-.246 1.337.814 1.418zm-6.97-91.519l-.01.016c-.952 2.486-1.712 5.041-.406 7.729 2 4.173 6.76 6.288 11.233 4.995a15.055 15.055 0 003.493-1.321v-18.639c-1.253 1.789-1.979 3.93-1.845 6.234.134 2.294.751 4.562.293 6.894-.568 2.91-2.809 3.742-5.278 4.215a4.752 4.752 0 01-5.412-2.432 6.793 6.793 0 01.298-7.627 21.955 21.955 0 014.459-4.54c.476-.425 1.343-.641.843-1.533-.544-.97-1.135-.225-1.705.014-2.057.867-4.101 1.768-6.18 2.581-1.316.517-3.553.719-3.496 1.975.077 1.725 2.489.47 3.713 1.439zm-15.454-20.284c.302.448.657 1.109 1.359.542.35-.281.895-.866.802-1.065-1.913-4.151 1.392-4.67 4.386-5.887 2.174-1.456 2.943.708 3.99 2.274 3.321 4.968 3.301 4.954-.755 9.361-1.17 1.27-2.201 1.99-3.395.086-.442-.705-.962-.682-1.684-.271-1.013.575-.417 1.092-.066 1.626 1.648 2.487 3.339 4.952 4.966 7.455.445.684.93.547 1.476.295.425-.195 1.047-.435.61-1.017-1.275-1.709.188-2.736 1.017-3.754 5.649-6.935 11.369-13.813 17.057-20.717v-4.188c-.203.084-.402.17-.593.227a4818.57 4818.57 0 00-26.84 8.129c-1.543.472-3.084.799-4.429-.316-.773-.641-1.184-.27-1.717.196-.677.586-.12 1.038.164 1.48a283.28 283.28 0 003.652 5.544zm23.186-11.089c-2.597 3.17-4.95 6.085-7.364 8.955l.003.003c-.715.85-1.202.064-1.554-.465-1.101-1.657-2.145-3.352-3.342-5.235l12.257-3.258zm-20.04 226.09h3.974a96.73 96.73 0 012.677-2.258c.818-.657 1.338-.47 1.346.701l-.001.003c-.034.52-.016 1.039.027 1.554h2.277c-.224-2.9 1.63-5.649 4.558-6.47 3.353-.746 6.721 1.188 7.737 4.442.163.683.181 1.364.116 2.028h2.255a18.182 18.182 0 00-1.09-4.826c.897.285 1.816.49 2.743.642v-2.367c-2.261-.431-4.2-2.068-4.848-4.418l-.017-.064c-.813-3.349 1.265-6.719 4.643-7.526.074-.018.148-.016.222-.031v-2.058c-.856.124-1.706.295-2.535.558l2.535-3.059v-4.122a178.45 178.45 0 01-26.619 27.271zm19.405-14.709a15.092 15.092 0 001.04 6.575l-.006.003a11.889 11.889 0 00-7.334-.133l6.3-6.445z" class="st1"/><path d="M11.543 265.137c.312 2.927 1.796 5.725 3 8.506a223.139 223.139 0 0019.014 35.815 200.315 200.315 0 0020.935 26.337h17.105c.723-.659 1.595-1.175 2.613-1.433a6.174 6.174 0 015.69 1.433h6.101c-27.622-22.69-48.553-53.706-58.512-90.092C2.096 151.311 58.684 54.381 153.883 29.204l.048-.013C224.817 10.481 297.358 37.125 340 91.046v-6.992a5.886 5.886 0 010-3.253v-7.329a6.006 6.006 0 01-3.828 2.712c-3.259.771-6.54-1.191-7.371-4.41-.913-3.302 1.034-6.718 4.361-7.643 2.737-.688 5.489.572 6.838 2.88v-8.265a202.119 202.119 0 00-62.343-42.267A200.277 200.277 0 00208.931.315a187.546 187.546 0 00-43.925 2.619 230.242 230.242 0 00-31.901 8.334 184.01 184.01 0 00-29.955 13.126 195.162 195.162 0 00-53.756 43.06 196.073 196.073 0 00-32.144 50.134C1.066 154.038-3.878 194.421 3.044 233.649a155.282 155.282 0 008.499 31.488zM334.96 78.597l.001.004a11.962 11.962 0 013.034-.778c1.398.006.54.693.164 1.151a10.85 10.85 0 00-.885 4.623c-1.288-1.458-2.366-2.547-3.285-3.754-1.018-1.338.297-1.085.971-1.246zm2.018-16.686c-2.178-.59-4.067.235-6.173.8.285-2.122.909-4.189-.172-6.893a29.94 29.94 0 016.345 6.093zM6.047 225.379l-.879-6.731a15.6 15.6 0 006.043 2.872c-2.726.902-3.685 2.539-5.164 3.859zm13.176-17.208a18.75 18.75 0 00-5.697-3.783h.017c2.566-.451 3.627-2.107 5.319-3.407l.361 7.19zm-4.815-19.45c1.762-1.216 3.591-1.84 5.114-3.906l-.397 7.483-.001-.006c-1.667-1.25-2.61-2.907-4.716-3.571zm5.203 27.829l1.143 7.658a11.14 11.14 0 00-5.765-3.065 13.395 13.395 0 004.622-4.593zm.882-39.899c-1.395-1.116-1.936-2.903-3.945-3.578l4.821-2.798-.876 6.376zm-4.414-6.138c-3.282.795-6.593-1.199-7.395-4.454-.02-.082-.038-.164-.056-.246-.789-3.229 1.14-6.499 4.365-7.397 3.363-.785 6.745 1.229 7.629 4.541.838 3.328-1.191 6.704-4.543 7.556zm2.22 7.807l.023.071c1.014 3.184-.765 6.581-3.976 7.588-.09.028-.181.055-.272.079-3.191 1.013-6.606-.732-7.627-3.896a6.246 6.246 0 01-.094-.323c-.915-3.192.915-6.523 4.116-7.493 3.268-1.048 6.774.732 7.83 3.974zm-.972 16.564c.732 3.331-1.214 6.667-4.492 7.698-3.372.689-6.697-1.37-7.549-4.678-.872-3.223 1.053-6.538 4.304-7.41 3.354-.86 6.787 1.087 7.737 4.39zm.663 16.492c.756 3.329-1.274 6.658-4.599 7.54-3.352.833-6.751-1.187-7.592-4.51-.001-.01-.004-.021-.007-.033-.675-3.246 1.248-6.468 4.442-7.442 3.359-.756 6.74 1.181 7.756 4.445zm-5.657 12.072c3.373-.693 6.72 1.292 7.7 4.567h-.009c.58 3.358-1.463 6.615-4.757 7.581-3.399.681-6.717-1.473-7.448-4.833-.766-3.252 1.244-6.511 4.514-7.315zm-4.565 12.443l4.032 1.896-2.866 3.617-1.166-5.513zm3.272 10.321c-.792-3.338 1.262-6.69 4.617-7.529 3.279-.729 6.557 1.225 7.449 4.437.821 3.328-1.121 6.714-4.426 7.715-3.374.682-6.709-1.335-7.64-4.623zm2.25 11.626l-1.731-6.403a16.502 16.502 0 005.15 1.787 16.526 16.526 0 00-3.419 4.616zm3.325 9.417a13.6 13.6 0 005.449 1.476c-1.088 1.65-2.329 2.842-2.671 4.705-1.703-1.709-1.743-3.811-2.778-6.181zm6.587 15.754a14.63 14.63 0 005.627.873l-2.672 4.852-2.955-5.725zm11.566 20.708l-3.409-5.181.003.001 5.275.249-1.869 4.931zm9.825 13.385c-2.117-1.284-2.682-3.175-4.302-4.814l5.019.326c-.336 1.45-1.128 2.68-.717 4.488zm11.055 13.89l-5.356-5.997c2.071.387 4.208.216 6.19-.496a15.71 15.71 0 00-.834 6.493zm16.736-3.932l4.664 4.45c-1.765.614-3.455.083-5.048 1.219.19-2.046.904-3.579.384-5.669zm-11.879-6.017a15.34 15.34 0 00.897-5.702c1.191 1.322 2.043 2.381 3.007 3.312 1.625 1.575 1.024 2.091-.913 2.078l.001-.001c-1.031.239-2.063.479-3.097.71a.294.294 0 01-.057-.179.936.936 0 01.162-.218zm1.877 2.029l.071-.02c3.371-.689 6.714 1.291 7.698 4.561.623 3.247-1.245 6.458-4.392 7.548-3.356.809-6.754-1.171-7.676-4.471-.935-3.28.99-6.691 4.299-7.618zm-3.375-8.099c.997 3.25-.852 6.685-4.13 7.674a7.454 7.454 0 01-.504.13c-3.345.732-6.654-1.363-7.392-4.68-.699-3.148 1.171-6.298 4.287-7.219 3.278-.988 6.742.845 7.739 4.095zm-6.635-10.966c1.681 1.308 2.234 3.188 3.845 4.911l-4.977-.638 1.132-4.273zm-2.716-1.627c.929 3.321-1.034 6.757-4.382 7.678-3.349.921-6.815-1.025-7.744-4.345-.848-3.304 1.167-6.663 4.499-7.503l.073-.017c3.245-.856 6.59.997 7.554 4.187zm-6.245-12.168l3.707 5.623c-2.056.174-3.717-.484-5.829.264a10.254 10.254 0 002.122-5.887zm-2.513-1.329c.852 3.219-1.091 6.513-4.338 7.358a5.88 5.88 0 01-.292.068c-3.258.78-6.553-1.147-7.442-4.352-.833-3.332 1.151-6.718 4.483-7.649l-.006.003c3.367-.792 6.752 1.244 7.595 4.572zm-1.966-6.489l-5.559-.677a9.522 9.522 0 002.778-5.206c1.006 2.082 2.494 3.564 2.781 5.883zm-9.714-.971c-.048.013-.098.024-.147.035-3.205.829-6.482-1.075-7.318-4.253a6.17 6.17 0 01-.09-.398c-.805-3.229 1.151-6.503 4.395-7.355 3.361-.797 6.745 1.22 7.612 4.535.842 3.271-1.151 6.601-4.452 7.436zm-1.688-14.517a26.702 26.702 0 002.782-4.979l1.913 5.904c-1.712.002-3.027-1.063-4.695-.925zm.263-8.261c.882 3.315-1.113 6.711-4.456 7.585-3.355.795-6.764-1.1-7.828-4.355-.634-3.345 1.356-6.633 4.634-7.649 3.344-.874 6.769 1.104 7.65 4.419zm-2.024-10.179a10.854 10.854 0 011.665 4.521c.234 1.274-.597.744-1.11.209a13.059 13.059 0 00-3.957-1.51c.828-1.182 1.672-2.295 2.41-3.472.706-1.126.734-.095.992.252zm-3.959-15.434l1.487 5.5-4.19-2.22-.001-.004 2.704-3.276zm1.525-72.284c-.034.369-.135.73-.212 1.127-1.256-.477-1.077-1.842-1.849-2.569-.691-.648-1.299-1.383-2.212-2.369 2.177.387 3.682-2.463 5.071-1.082.987.981-.639 3.181-.798 4.893zm3.645-13.691c-1.063-2.041-1.613-3.721-3.282-4.787l5.617-2.322-2.335 7.109zm5.072-13.8a12.706 12.706 0 00-3.161-6.312 9.787 9.787 0 006.129-1.982c-.515 3.122-1.985 5.208-2.968 8.294zm6.476-14.587a14.425 14.425 0 00-2.15-5.934l5.365-.537c-.583 2.35-1.963 4.115-3.215 6.471zm7.756-13.593a11.558 11.558 0 00-1.684-6.122c1.952.243 3.93.185 5.865-.17l-4.181 6.292zm9.381-13.467c-.174-.227-.281-.306-.271-.367.366-1.705-1.511-3.67-.377-4.808 1.034-1.038 3.321-.193 5.258-.583l-4.61 5.758zm9.819-11.837c.026-2.01-.275-4.01-.889-5.923 1.983.386 3.994.599 6.015.637l-5.126 5.286zM77.521 67.78c-.172.682-.749.931-1.359 1.239a2.577 2.577 0 01.356-2.298l-.397-4.196v-.008a19.64 19.64 0 006.223 1.009l-4.823 4.254zm10.212-8.663l-.003-.006c.795-2.192.872-4.578.222-6.817 2.259.716 4.275 1.759 6.713 1.761l-6.932 5.062zm19.531-13.204c-2.073.99-3.718 2.743-6.284 3.489v-.006c.181-2.211 1.094-4.139.356-6.651a12.3 12.3 0 005.646 2.155l1.935-.514a1.945 1.945 0 01-1.653 1.527zm13.772-7.285l-6.287 3.047c-.427-2.398 1.365-3.961.974-6.132 2.04.774 3.522 2.204 5.572 1.948.463-.213 1.07-.383 1.058.321-.009.656-.731.762-1.317.816zm9.854-4.262c-.529.774-1.466.76-2.222 1.086-.325.14-.818.247-.84-.263l-.004.001c-.009-.274.42-.564.655-.847 1.594-1.64 1.828-3.763 2.123-6.133a11.472 11.472 0 006.911 3.414 42.829 42.829 0 00-6.623 2.742zm11.531-4.47a11.5 11.5 0 003.483-6.365c1.759 1.246 3.192 2.694 5.232 2.952a1.358 1.358 0 011.644.66l-10.359 2.753zm25.769-6.522c-.38.9-1.271.757-2.086.469l-8.006 2.124a17.682 17.682 0 003.435-6.763c1.68 1.747 3.154 3.421 5.515 3.766.455.003 1.289.067 1.142.404zm4.794-.335c2.16-2.328 4.022-3.946 4.674-6.512a9.647 9.647 0 004.871 4.463c-3.087 1.353-6.049.887-9.545 2.049zm16.099-2.031c2.053-1.76 3.913-2.983 4.631-5.911a13.911 13.911 0 004.08 5.531l-8.711.38zm15.404-.183c2.076-1.446 4.016-2.401 4.922-4.586 1.342 1.451 1.996 3.26 3.506 4.824l-8.428-.238zm16.045 1.044l-.003.001c2.477-1.535 4.413-2.771 5.391-5.705a17.954 17.954 0 003.476 6.894l-8.864-1.19zm24.619 4.483l-8.948-1.965a13.687 13.687 0 005.985-4.051 12.386 12.386 0 002.967 6.016h-.004zm14.361 4.412l-7.54-2.395a16.876 16.876 0 005.904-3.263c-.469 2.196 1.537 3.507 1.636 5.658zm36.589 17.648c4.147-2.527 4.674-2.236 5.147 3.25l-5.147-3.25zm18.49 13.142l-5.828-4.533a16.165 16.165 0 006.141-1.451 11.22 11.22 0 00-.313 5.984zm12.031 6.061a8.213 8.213 0 00-.301 4.017c-1.799-.775-2.658-2.414-4.262-3.188-.648-.314.174-.859.759-.979l.001.006c1.064-.292 2.12-.627 3.195-.864 1.076-.238 1.093.268.608 1.008zm-8.924-22.896c1.764 1.392 3.547 2.76 5.286 4.186 1.036.853 1.104 1.497-.476 1.814-1.58.318-3.154.815-5.033 1.315.825-2.359.904-4.911.223-7.315zm3.583 8.539l.138-.031c3.104-.904 6.361.857 7.272 3.935.034.114.064.23.091.346l-.003-.001c.954 3.178-.87 6.521-4.074 7.468a6.453 6.453 0 01-.338.089c-3.345.835-6.747-1.144-7.647-4.445-.79-3.282 1.251-6.577 4.561-7.361zm-10.524-13.44c-2.061.706-4.116.42-6.24 2.276a12.694 12.694 0 00-.674-6.914 36.831 36.831 0 016.914 4.638zm-2.575 2.758c3.285-.768 6.589 1.195 7.453 4.43l.004.003c.835 3.309-1.195 6.664-4.533 7.492-3.338.828-6.721-1.185-7.556-4.495-.79-3.32 1.283-6.646 4.632-7.43zm-5.983-5.193c.03.093.056.188.08.282.803 3.221-1.053 6.505-4.242 7.507-3.343.869-6.791-1.004-7.851-4.266-.84-3.315 1.131-6.691 4.449-7.618 3.229-.939 6.615.893 7.564 4.095zm-5.676-6.751l-.006.003a11.037 11.037 0 00-6.351 2.566 12.366 12.366 0 00-2.064-6.98 49.446 49.446 0 018.421 4.411zm-7.874 13.298l-6.196-3.604a22.118 22.118 0 005.411-3.047c-.566 2.672.461 4.558.785 6.651zm-1.02-14.221c.848 3.324-1.087 6.722-4.396 7.719-3.238.914-6.626-.88-7.659-4.058-.93-3.301.863-6.755 4.114-7.92l.003-.001c3.356-.802 6.782 1.036 7.938 4.26zm-13.413-9.562v-.004c1.02-1.099 2.519.629 3.832 1.028a30.665 30.665 0 013.581 1.648c-2.145.792-3.96.791-5.309 2.028-.633.581-1.272.583-1.366-.436-.139-1.494-1.7-3.226-.738-4.264zm.546 16.767l-7.801-3.335a12.379 12.379 0 006.213-3.502 9.196 9.196 0 001.588 6.837zm-2.116-13.583c.674 3.348-1.395 6.639-4.722 7.514-3.248.867-6.59-1.04-7.465-4.26l-.003-.013c-.922-3.271 1.006-6.665 4.305-7.579l.097-.025c3.349-.803 6.753 1.104 7.788 4.363zm-6.616-6.99a11.19 11.19 0 00-6.422 3.297c-.739-2.264-1.086-4.48-3.551-6.472a55.931 55.931 0 019.973 3.175zm-9.124 1.9h.009c.756 3.338-1.232 6.682-4.543 7.643-3.352.802-6.724-1.243-7.533-4.565l-.013-.054c-.862-3.204 1.057-6.495 4.288-7.349.113-.03.226-.057.34-.079 3.266-.712 6.53 1.216 7.452 4.404zm-7.124-7.274c-2.431 1.338-4.778 1.881-6.084 4.508a16.508 16.508 0 00-3.426-6.219c3.457-.09 6.106 1.064 9.51 1.711zM233.154 9.96c3.318-.955 6.788.938 7.751 4.228.784 3.332-1.246 6.68-4.583 7.555-3.239.819-6.557-1.027-7.54-4.195-.953-3.211.9-6.579 4.138-7.524.077-.023.155-.044.234-.064zm-.689-2.318l-.001.001a8.992 8.992 0 00-5.818 5.626c-.88-2.908-1.664-5.308-4.381-7.034a23.781 23.781 0 0110.2 1.407zm-8.436 4.154l.009-.001c.758 3.341-1.192 6.699-4.486 7.729-3.368.816-6.781-1.17-7.703-4.485-.725-3.239 1.128-6.5 4.298-7.562 3.356-.781 6.764 1.086 7.882 4.319zm-8.205-6.634c-2.51.838-4.6 2.596-5.839 4.917a8.852 8.852 0 00-5.03-5.245c4.031-.914 7.4.164 10.869.328zm-15.621 1.536c3.067-.97 6.348.709 7.327 3.75.066.205.12.412.162.624l-.004.001c.923 3.133-.89 6.414-4.05 7.329l-.152.042c-3.201.99-6.604-.778-7.604-3.952a7.09 7.09 0 01-.084-.294c-.962-3.127.818-6.435 3.972-7.389a7.21 7.21 0 01.433-.111zm-1.89-2.213a10.612 10.612 0 00-4.657 5.53 10.262 10.262 0 00-4.834-4.836c3.316-1.476 6.396-.748 9.491-.694zm-6.904 6.914l.029.113h-.003c.936 3.198-.919 6.543-4.144 7.471a5.042 5.042 0 01-.293.076c-3.268.774-6.564-1.17-7.439-4.386-.946-3.305.979-6.749 4.308-7.704 3.315-.841 6.693 1.142 7.542 4.43zm-9.738-6.153a11.587 11.587 0 00-4.647 6.133 10.536 10.536 0 00-5.989-4.876 39.848 39.848 0 0110.636-1.257zm-14.322 3.653c3.13-.98 6.468.739 7.458 3.842.05.158.094.318.131.479.999 3.117-.741 6.448-3.886 7.438a6.063 6.063 0 01-.434.119c-3.245.893-6.607-.992-7.509-4.209a5.871 5.871 0 01-.067-.261c-.83-3.22 1.082-6.507 4.307-7.408zm-3.719-1.133h.006a12.976 12.976 0 00-3.056 6.099c-2.066-1.992-3.956-3.855-7.659-4.03a47.89 47.89 0 0110.709-2.069zm-12.437 4.512c.038-.011.077-.023.115-.032l-.007.003c3.375-.822 6.782 1.225 7.61 4.571.816 3.3-1.18 6.64-4.489 7.514-3.268.75-6.546-1.203-7.413-4.417-.971-3.255.901-6.676 4.184-7.639zm-11.46 1.065l8.78-2.333a9.545 9.545 0 00-4.171 6.627 16.008 16.008 0 00-4.916-3.088c-.583.162-1.483.215-1.457-.366.038-.874 1.074-.724 1.764-.84zm-4.109 3.51l.014-.003c3.287-.898 6.684 1.013 7.592 4.271.013.045.024.09.036.136.974 3.075-.749 6.352-3.852 7.318-.192.061-.389.11-.587.15-3.235.907-6.599-.959-7.512-4.167l-.001-.004c-.898-3.3 1.011-6.711 4.31-7.701zm-14.995 3.363l2.57-.684c2.53-1.653 5.554-2.081 8.348-3.341a9.934 9.934 0 00-2.604 7.969c-2.067-2.027-4.026-3.359-6.573-3.461l-1.624-.007-.128-.476h.011zm-.677 3.02l.172-.052c3.338-.896 6.781 1.03 7.734 4.324.933 3.24-.959 6.617-4.227 7.543a6.315 6.315 0 01-.185.049c-3.181.924-6.515-.886-7.445-4.038l-.043-.15c-1.033-3.214.755-6.649 3.994-7.676zm-4.444-.5c.376-.246.746-.513 1.145-.733.043-.023.335.215.332.328-.021.747-.648.79-1.178.934-1.952 1.835-2.513 4.212-2.469 7.157a10.49 10.49 0 00-7.503-2.744l9.673-4.942zm-10.066 7.85l.021-.004c3.182-1.045 6.616.665 7.67 3.819.037.11.07.22.1.332.689 3.302-1.208 6.596-4.428 7.685-3.369.751-6.751-1.199-7.76-4.473-.834-3.236 1.133-6.529 4.397-7.359zm-5.551.356a19.46 19.46 0 00-1.32 7.661 11.834 11.834 0 00-7.6-2.075l8.92-5.586zm-8.423 8.268l-.001.006c3.244-.842 6.58.996 7.573 4.17 1.02 3.188-.761 6.592-3.976 7.603a8.755 8.755 0 01-.245.072c-3.319.958-6.797-.915-7.797-4.196-.839-3.323 1.127-6.708 4.446-7.655zm-5.915 1.041a15.192 15.192 0 00-.574 7.821c-2.409-1.744-4.751-1.648-7.592-1.703l8.166-6.118zm-7.435 8.717c2.967-1.079 6.255.431 7.344 3.374.101.273.181.554.238.838 1.078 2.972-.476 6.247-3.473 7.317a5.747 5.747 0 01-.762.215c-3.271.917-6.671-.97-7.596-4.212-.924-3.243.978-6.616 4.249-7.532zm-6.346 2.245l-.368 3.602c.291.907.523 1.829.698 2.764.127.976-.416.842-.987.408-2.15-.912-4.359-.304-6.909-.186l7.566-6.588zm-5.609 8.753c.111-.033.222-.061.332-.086 3.208-.87 6.52 1.003 7.398 4.185l.021.079c.949 3.235-.926 6.619-4.188 7.56-3.262.941-6.676-.918-7.624-4.153-.014-.048-.029-.097-.041-.147-.94-3.178.898-6.508 4.102-7.438zm-6.428 2.347c-.175 2.769-.571 5.061.908 7.538a11.865 11.865 0 00-8.163.268l7.255-7.806zm-4.637 9.413c3.325-.915 6.787.927 7.857 4.178.749 3.325-1.174 6.67-4.442 7.723-3.359.792-6.753-1.172-7.706-4.462-.837-3.221 1.065-6.519 4.291-7.439zm-6.522 3.102c-.328 2.847-.46 4.873.597 6.673.698 1.192-.469 1.178-.782 1.028-2.111-1.004-3.987.383-6.295.47l6.48-8.171zm-3.387 9.797c3.353-.822 6.761 1.137 7.706 4.431.832 3.321-1.208 6.681-4.557 7.506-3.349.825-6.738-1.198-7.57-4.519-.71-3.238 1.219-6.473 4.421-7.418zM37.84 89.08a17.3 17.3 0 002.073 6.743c-2.571-.441-4.677.501-7.228 1.131l5.155-7.874zm-1.877 9.008h.004c3.358-.723 6.727 1.17 7.827 4.397.779 3.328-1.174 6.687-4.47 7.685-3.255.814-6.58-1.055-7.549-4.242-.919-3.301.918-6.74 4.188-7.84zm-7.187 5.604c.859 2.314.869 4.355 2.757 6.105a28.59 28.59 0 00-6.616 1.174l3.859-7.279zm-.672 8.553l-.003-.004c3.362-.853 6.79 1.147 7.67 4.475.946 3.23-.927 6.609-4.184 7.547a8.406 8.406 0 01-.227.061c-3.262.723-6.546-1.123-7.596-4.27-.801-3.324 1.078-6.706 4.34-7.809zm-6.775 6.838a15.78 15.78 0 002.366 5.476l-5.12 1.362a18.604 18.604 0 012.754-6.838zm.372 8.185v-.006c3.269-.691 6.526 1.226 7.48 4.403.977 3.243-.882 6.657-4.153 7.626-3.271.969-6.714-.874-7.691-4.117a6.574 6.574 0 01-.064-.23c-.845-3.323 1.111-6.714 4.428-7.676zm-6.95 7.774c.937 2.078 1.41 3.72 3.62 4.873l-5.579 1.483 1.959-6.356zm1.824 7.639h-.004c3.277-.946 6.707.921 7.66 4.17.013.042.024.086.037.13.974 3.256-.897 6.677-4.181 7.643-3.284.966-6.734-.89-7.708-4.146a5.696 5.696 0 01-.095-.357c-.813-3.221 1.08-6.502 4.291-7.44zm-6.577 8.495a10.017 10.017 0 004.061 4.654 18.334 18.334 0 00-5.825 2.681l1.764-7.335zM6.63 167.788c.858 1.931 2.39 2.729 3.445 4.259-1.698.305-2.711 1.863-4.495 1.78l1.05-6.039zm-1.909 16.158a10.686 10.686 0 004.067 4.038l-4.613 3.153.546-7.191zm-.584 17.301l.003.006a10.809 10.809 0 005.012 3.439 15.835 15.835 0 00-4.559 3.646 27.342 27.342 0 01-.456-7.091zM133.01 318.954c1.788 1.432 1.214 3.17.318 4.682-2.419 4.082-4.905 8.126-7.41 12.158h2.652c2.102-3.435 4.198-6.875 6.381-10.257 1.03-1.595 2.266-3.331 4.66-2.527.959.321 1.231-.192 1.541-.798.368-.718-.175-1.049-.677-1.355a1824.069 1824.069 0 00-5.98-3.632c-.548-.326-1.086-.482-1.433.219-.234.471-.749.952-.052 1.51zm-23.248 10.636c-1.163 1.945-2.229 3.973-2.372 6.204h5.504a7.867 7.867 0 011.28-3.234c3.224-5.391 6.603-10.694 9.828-16.085.913-1.525 1.776-2.244 3.388-.942.601.487 1.124.496 1.653-.28.557-.825.199-1.106-.479-1.51a692.928 692.928 0 01-8.696-5.305c-.56-.346-1.083-.545-1.38.22-.179.459-.873 1.059-.033 1.472 3.074 1.508 1.234 3.188.221 4.846-2.976 4.87-5.985 9.717-8.914 14.614zm48.546.471c2.068 1.648 1.532 3.728.829 5.733h1.993c.688-1.752 1.615-3.378 4.155-3.235 1.031.061.99-.76 1.189-1.341.295-.852-.492-.918-.983-1.097-1.913-.709-3.836-1.407-5.775-2.031-.499-.161-1.192-.976-1.623.162-.24.643-.496 1.242.215 1.809zm-15.698-5.808c1.822.91 1.972 2.403 1.318 4.168-.91 2.453-1.801 4.914-2.697 7.372h1.747c.519-1.482 1.039-2.963 1.555-4.446.355 1.486.672 2.965.996 4.446h5.738a660.115 660.115 0 01-1.392-8.406c-.214-1.342.09-3.011-1.811-3.585a77.444 77.444 0 01-4.418-1.49c-.795-.299-1.466-.564-1.882.5-.346.889.162 1.095.846 1.441zm28.462 11.541c.362-.445.73-.887 1.137-1.296a2.398 2.398 0 012.697-.455c.903.372 1.011 1.033.942 1.751h5.527c.535-.912 1.466-.696 2.65-.042.018.012.032.029.049.042h5.387c.082-1.323-.503-1.881-2.042-2.1a521.994 521.994 0 01-17.245-2.719c-1.402-.246-1.856.049-2.093 1.41a101.96 101.96 0 01-.662 3.409h3.653zm44.525 0c.541-.34.347-.978.319-1.453-.044-.787-.768-.651-1.338-.627-2.13.089-4.261.155-6.391.273-.675.037-1.634-.371-1.627.973.002.411.085.661.247.834h8.79zm-12.351 0c.202-.254.259-.609.263-1.015.006-.646-.454-.821-.963-.805-3.487.113-6.976.244-10.465.359a.849.849 0 00-.893.909c-.018.18-.002.37.033.552h12.025z" class="st1"/></g>
    </symbol>
    <symbol id="twitter" viewBox="0 0 16.708 13.57">
      <path d="M14.991 3.382c.011.148.011.3.011.445a9.676 9.676 0 01-9.609 9.743h-.134A9.67 9.67 0 010 12.032c.275.03.551.044.827.042a6.86 6.86 0 004.251-1.463 3.43 3.43 0 01-3.2-2.375c.214.034.43.052.647.053.304-.001.606-.04.9-.117A3.424 3.424 0 01.678 4.813V4.77a3.45 3.45 0 001.548.435 3.43 3.43 0 01-1.06-4.58 9.734 9.734 0 007.061 3.584 3.896 3.896 0 01-.085-.784 3.428 3.428 0 015.926-2.343 6.756 6.756 0 002.173-.827 3.414 3.414 0 01-1.505 1.887 6.851 6.851 0 001.972-.53 7.364 7.364 0 01-1.717 1.77z"/>
    </symbol></svg>