<svg xmlns="http://www.w3.org/2000/svg" viewBox="0 0 16.712 16.708"><path d="M8.358 4.07a4.284 4.284 0 104.284 4.284 4.277 4.277 0 00-4.27-4.284h-.014zm0 7.069a2.785 2.785 0 112.785-2.785 2.79 2.79 0 01-2.785 2.785zm5.458-7.244a1 1 0 11-2 0 1 1 0 012 0zm2.837 1.014a4.946 4.946 0 00-1.35-3.5A4.976 4.976 0 0011.805.062c-1.379-.078-5.514-.078-6.894 0a4.973 4.973 0 00-3.506 1.342 4.963 4.963 0 00-1.35 3.5c-.078 1.379-.078 5.514 0 6.894a4.946 4.946 0 001.35 3.5 4.982 4.982 0 003.5 1.35c1.379.078 5.514.078 6.894 0a4.946 4.946 0 003.5-1.35 4.977 4.977 0 001.35-3.5c.078-1.379.078-5.51 0-6.89l.004.001zm-1.782 8.37a2.824 2.824 0 01-1.588 1.588c-1.1.436-3.71.336-4.925.336s-3.829.1-4.925-.336a2.824 2.824 0 01-1.588-1.588c-.436-1.1-.336-3.71-.336-4.925s-.1-3.829.336-4.925a2.824 2.824 0 011.588-1.588c1.1-.436 3.71-.336 4.925-.336s3.829-.1 4.925.336a2.824 2.824 0 011.588 1.588c.436 1.1.336 3.71.336 4.925s.098 3.829-.336 4.925z"/></svg>