<svg xmlns="http://www.w3.org/2000/svg" viewBox="0 0 16.708 13.57"><path d="M14.991 3.382c.011.148.011.3.011.445a9.676 9.676 0 01-9.609 9.743h-.134A9.67 9.67 0 010 12.032c.275.03.551.044.827.042a6.86 6.86 0 004.251-1.463 3.43 3.43 0 01-3.2-2.375c.214.034.43.052.647.053.304-.001.606-.04.9-.117A3.424 3.424 0 01.678 4.813V4.77a3.45 3.45 0 001.548.435 3.43 3.43 0 01-1.06-4.58 9.734 9.734 0 007.061 3.584 3.896 3.896 0 01-.085-.784 3.428 3.428 0 015.926-2.343 6.756 6.756 0 002.173-.827 3.414 3.414 0 01-1.505 1.887 6.851 6.851 0 001.972-.53 7.364 7.364 0 01-1.717 1.77z"/></svg>